<svg xmlns="http://www.w3.org/2000/svg" version="1.1" xmlns:xlink="http://www.w3.org/1999/xlink" width="512" height="512" x="0" y="0" viewBox="0 0 64 64" style="enable-background:new 0 0 512 512" xml:space="preserve" class=""><g><path d="M27 12h10v2H27zM27 16h10v2H27z" fill="#cca732" opacity="1" data-original="#000000" class=""></path><path d="M57 54v-8a1 1 0 0 0-.72-.96L33 38.25V26h7a1 1 0 0 0 1-1V9a.997.997 0 0 0-.293-.707l-6-6A.996.996 0 0 0 34 2H24a1 1 0 0 0-1 1v22a1 1 0 0 0 1 1h7v12.25L7.72 45.04A1 1 0 0 0 7 46v8a1 1 0 0 0 .72.96l24 7a.987.987 0 0 0 .56 0l24-7A1 1 0 0 0 57 54zM35 5.414 37.586 8H35zM25 4h8v5a1 1 0 0 0 1 1h5v14H25zm6 36.333v5.253l-2.293-2.293-1.414 1.414 4 4a.997.997 0 0 0 1.414 0l4-4-1.414-1.414L33 45.586v-5.253L52.429 46 32 51.958 11.571 46zm-22 7 22 6.417v5.917L9 53.25zm24 12.334V53.75l22-6.417v5.917z" fill="#cca732" opacity="1" data-original="#000000" class=""></path><path d="M27 8h4v2h-4zM3 26h7c0 2.757 2.243 5 5 5h3c1.654 0 3 1.346 3 3v1.586l-2.293-2.293-1.414 1.414 4 4a.997.997 0 0 0 1.414 0l4-4-1.414-1.414L23 35.586V34c0-2.757-2.243-5-5-5h-3c-1.654 0-3-1.346-3-3h7a1 1 0 0 0 1-1V9a.997.997 0 0 0-.293-.707l-6-6A.996.996 0 0 0 13 2H3a1 1 0 0 0-1 1v22a1 1 0 0 0 1 1zM14 5.414 16.586 8H14zM4 4h8v5a1 1 0 0 0 1 1h5v14H4z" fill="#cca732" opacity="1" data-original="#000000" class=""></path><path d="M6 12h10v2H6zM6 16h10v2H6zM6 20h10v2H6zM6 8h4v2H6zM62 25V9a.997.997 0 0 0-.293-.707l-6-6A.996.996 0 0 0 55 2H45a1 1 0 0 0-1 1v22a1 1 0 0 0 1 1h7c0 1.654-1.346 3-3 3h-3c-2.757 0-5 2.243-5 5v1.586l-2.293-2.293-1.414 1.414 4 4a.997.997 0 0 0 1.414 0l4-4-1.414-1.414L43 35.586V34c0-1.654 1.346-3 3-3h3c2.757 0 5-2.243 5-5h7a1 1 0 0 0 1-1zM56 5.414 58.586 8H56zM46 24V4h8v5a1 1 0 0 0 1 1h5v14z" fill="#cca732" opacity="1" data-original="#000000" class=""></path><path d="M48 12h10v2H48zM48 16h10v2H48zM48 20h10v2H48zM48 8h4v2h-4zM27 20h2v2h-2zM31 20h2v2h-2zM35 20h2v2h-2z" fill="#cca732" opacity="1" data-original="#000000" class=""></path></g></svg>