<?xml version="1.0" encoding="UTF-8"?><svg id="Layer_2" xmlns="http://www.w3.org/2000/svg" viewBox="0 0 1163.12 552.2"><defs><style>.cls-1{fill:#cca732;}.cls-1,.cls-2{stroke-width:0px;}.cls-2{fill:#05a705;}</style></defs><g id="Layer_1-2"><path class="cls-1" d="m633.18,151.73h-3.54c-8.78-10.1-19.55-17.84-32.3-23.23-12.76-5.38-26.11-8.09-40.05-8.11-28.11-.05-50.59,8.75-67.46,26.39-16.87,17.64-25.34,42.42-25.39,74.33-.06,32.56,8.1,57.9,24.48,76.03,16.38,18.13,40.23,27.22,71.55,27.27,9.01.02,17.86-.87,26.55-2.68,8.69-1.8,16.58-4.51,23.67-8.14l.15-82.41,14.16.99,14.16-.94-.16,90.79c-28.55,9.79-57.74,14.65-87.55,14.6-39.05-.07-68.95-10.94-89.72-32.61-19.27-20.17-28.88-47.28-28.82-81.35.06-36.42,12.02-64.89,35.87-85.41,22.77-19.45,52.71-29.15,89.83-29.08,21.02.04,39.79,2.54,56.3,7.5,10.08,3.02,18.65,6.79,25.72,11.31-.86,2.36-2,5.9-3.4,10.61-1.41,4.72-2.75,9.44-4.05,14.15Z"/><path class="cls-1" d="m735.88,289.96h3.24c6.89,11.07,14,19.15,21.33,24.26,8.63,5.97,18.98,8.96,31.08,8.98,12.95.02,23.7-4.51,32.24-13.6,8.54-9.08,12.83-20.16,12.85-33.23.03-16.28-8.64-28.93-26-37.96-16.29-7.1-32.48-14.3-48.55-21.61-17.36-10.53-26.02-26.07-25.98-46.64.03-19.71,7.14-35.12,21.32-46.23,13.1-10.25,29.84-15.37,50.23-15.33,8.58.02,16.94,1.32,25.09,3.91,8.15,2.59,15.11,6.46,20.9,11.62-1.51,3.43-2.8,6.65-3.88,9.65-.22.64-1.84,6.22-4.86,16.72h-3.22c-3.42-9.02-8.5-15.95-15.25-20.79-6.75-4.84-14.95-7.27-24.6-7.28-11.37-.02-20.98,3.45-28.82,10.39-7.85,6.95-11.77,15.99-11.79,27.13-.03,16.28,8.64,28.94,26,37.96,16.29,7.31,32.58,14.52,48.87,21.62,17.57,10.31,26.34,25.11,26.31,44.39-.04,22.5-7.79,40.47-23.26,53.94-14.61,12.82-33.39,19.22-56.35,19.18-8.8-.02-18.45-1.74-28.95-5.17-10.51-3.43-18.33-7.92-23.47-13.47,1.54-4.68,2.65-9,3.33-12.94.68-3.94,1.41-9.1,2.19-15.5Z"/><path class="cls-1" d="m962.44,332.84l.39-219.14,73.05.13,21.88.04c20.16.04,35.5,1.78,46.01,5.23,8.79,2.81,17.15,7.54,25.07,14.2,11.57,9.46,20.18,21.27,25.84,35.44,5.66,14.17,8.48,29.19,8.45,45.07-.04,21.24-3.83,40-11.36,56.29-6.68,14.36-16.46,27.22-29.35,38.56-9.24,7.92-20.78,13.96-34.62,18.12-13.84,4.16-34.71,6.21-62.6,6.16l-62.75-.11Zm28.68-206.22l-.34,191.79c6.44.01,15.01.19,25.74.53,10.72.34,16.19.51,16.41.51,12.23.02,22.2-.49,29.93-1.56,7.73-1.06,15.13-3.4,22.22-7.04,16.31-8.12,28.35-20.75,36.11-37.91,6.89-15.22,10.36-33.34,10.39-54.36.06-33.89-7.46-57.88-22.56-71.96-15.1-14.07-40.89-21.15-77.35-21.21-4.51,0-12.12.19-22.85.6-10.73.41-16.63.61-17.7.61Z"/><path class="cls-1" d="m460.24,386.1l24.48,57.13-4.24-.33-4.33.24c-1.96-5.6-3.62-10.12-4.98-13.55-.87-2.18-2.07-5.01-3.59-8.49h-20.73c-3.16,7.89-4.92,12.38-5.3,13.46-.82,2.18-1.74,5.03-2.77,8.57l-3.02-.24-2.86.24,25.46-57.04h1.88Zm6.08,31.58l-9.01-20.81-8.93,20.81h17.94Z"/><path class="cls-1" d="m548.53,434.33l-.41,5.1c-2.39,1.62-5.17,2.79-8.32,3.52-3.16.73-6.39,1.09-9.71,1.09-8.92,0-15.94-2.63-21.05-7.9-5.11-5.27-7.67-12.36-7.67-21.27s2.96-16,8.9-21.27c5.66-5,12.95-7.5,21.87-7.5,2.88,0,5.83.33,8.85.98s5.92,1.58,8.69,2.77c-.33.82-.65,1.84-.98,3.06-.33,1.22-.57,2.3-.73,3.22l-.57.08c-.6-.76-1.66-1.69-3.18-2.77-3.97-2.83-8.11-4.24-12.4-4.24-7.18,0-12.79,2.58-16.81,7.74-3.75,4.78-5.63,10.87-5.63,18.25,0,7.77,2.01,13.99,6.04,18.66,4.03,4.67,9.3,7.01,15.83,7.01,2.94,0,5.96-.58,9.06-1.73,3.1-1.16,5.85-2.75,8.24-4.8Z"/><path class="cls-1" d="m615.26,434.33l-.41,5.1c-2.39,1.62-5.17,2.79-8.32,3.52-3.16.73-6.39,1.09-9.71,1.09-8.92,0-15.94-2.63-21.05-7.9-5.11-5.27-7.67-12.36-7.67-21.27s2.96-16,8.9-21.27c5.66-5,12.95-7.5,21.87-7.5,2.88,0,5.83.33,8.85.98s5.92,1.58,8.69,2.77c-.33.82-.65,1.84-.98,3.06-.33,1.22-.57,2.3-.73,3.22l-.57.08c-.6-.76-1.66-1.69-3.18-2.77-3.97-2.83-8.11-4.24-12.4-4.24-7.18,0-12.79,2.58-16.81,7.74-3.75,4.78-5.63,10.87-5.63,18.25,0,7.77,2.01,13.99,6.04,18.66,4.03,4.67,9.3,7.01,15.83,7.01,2.94,0,5.96-.58,9.06-1.73,3.1-1.16,5.85-2.75,8.24-4.8Z"/><path class="cls-1" d="m664.92,444.04c-9.09,0-16.36-2.62-21.83-7.86-5.47-5.24-8.2-12.24-8.2-20.98s2.91-15.84,8.73-21.27c5.6-5.22,12.76-7.82,21.46-7.82s15.56,2.2,21.22,6.6c6.47,5.05,9.71,12.14,9.71,21.27s-2.88,16.29-8.65,21.8c-5.77,5.51-13.25,8.27-22.44,8.27Zm23.09-29.42c0-3.69-.35-6.97-1.06-9.82-.71-2.85-2.07-5.55-4.08-8.11-2.01-2.55-4.5-4.51-7.47-5.87-2.97-1.36-6.13-2.04-9.51-2.04-7.13,0-12.74,2.49-16.85,7.46-4.11,4.97-6.16,11.61-6.16,19.92s2.18,14.26,6.53,18.82c4.08,4.24,9.33,6.35,15.75,6.35,7.67,0,13.63-3.31,17.87-9.94,3.32-5.16,4.98-10.75,4.98-16.78Z"/><path class="cls-1" d="m728.52,387.33v31.21c0,7.5,1.25,12.9,3.75,16.22,2.77,3.69,7.53,5.54,14.28,5.54,6.15,0,10.69-2.09,13.63-6.27,2.66-3.8,4-9.24,4-16.3v-30.39l2.28.24,2.28-.24v32.43c0,7.88-2.14,13.9-6.41,18.05-4.27,4.16-10.08,6.23-17.42,6.23s-13.52-1.9-17.71-5.7c-2.28-2.06-3.89-4.89-4.81-8.47-.71-2.72-1.06-6.03-1.06-9.94v-32.6l3.59.24,3.59-.24Z"/><path class="cls-1" d="m845.66,387.33v55.9h-2.45s-4.28-5.02-4.28-5.02l-35.21-39.05h-.81v43.99l-2.28-.24-2.28.33v-55.9l3.2-.02,38.7,42.08.86-.04v-42.03l2.29.24,2.28-.24Z"/><path class="cls-1" d="m894.1,391.24v51.98l-3.59-.16-3.59.24v-52.06c-4.24,0-7.26.05-9.06.16-1.8.11-4.73.38-8.81.82l.24-2.45-.24-2.45h42.11l-.24,2.45.24,2.45c-2.01-.22-4.56-.44-7.63-.65-3.07-.22-6.22-.33-9.43-.33Z"/><path class="cls-1" d="m949.67,386.1l24.48,57.13-4.24-.33-4.33.24c-1.96-5.6-3.62-10.12-4.98-13.55-.87-2.18-2.07-5.01-3.59-8.49h-20.73c-3.16,7.89-4.92,12.38-5.3,13.46-.82,2.18-1.74,5.03-2.77,8.57l-3.02-.24-2.86.24,25.46-57.04h1.88Zm6.08,31.58l-9.01-20.81-8.93,20.81h17.94Z"/><path class="cls-1" d="m1044.84,387.33v55.9h-2.45s-4.28-5.02-4.28-5.02l-35.22-39.05h-.81v43.99l-2.29-.24-2.29.33v-55.9l3.2-.02,38.7,42.08.86-.04v-42.03l2.29.24,2.28-.24Z"/><path class="cls-1" d="m1093.28,391.24v51.98l-3.59-.16-3.59.24v-52.06c-4.24,0-7.26.05-9.06.16-1.8.11-4.73.38-8.81.82l.24-2.45-.24-2.45h42.11l-.24,2.45.24,2.45c-2.01-.22-4.56-.44-7.63-.65-3.07-.22-6.22-.33-9.43-.33Z"/><path class="cls-1" d="m1131.05,432.13h.82c1.75,2.8,3.56,4.85,5.42,6.14,2.19,1.51,4.82,2.26,7.89,2.26,3.28,0,6.01-1.15,8.17-3.46,2.16-2.31,3.25-5.12,3.25-8.43,0-4.13-2.2-7.33-6.61-9.61-4.14-1.79-8.24-3.61-12.32-5.46-4.41-2.66-6.61-6.6-6.61-11.81s1.8-8.91,5.39-11.74c3.32-2.61,7.56-3.91,12.73-3.91,2.18,0,4.3.33,6.36.98,2.07.65,3.84,1.63,5.3,2.94-.38.87-.71,1.69-.98,2.45-.05.16-.46,1.58-1.22,4.24h-.82c-.87-2.28-2.16-4.04-3.88-5.26s-3.79-1.84-6.24-1.84c-2.88,0-5.32.88-7.3,2.65-1.99,1.77-2.98,4.06-2.98,6.89,0,4.13,2.2,7.33,6.61,9.61,4.13,1.85,8.27,3.67,12.4,5.46,4.46,2.61,6.69,6.36,6.69,11.25,0,5.7-1.96,10.27-5.88,13.69-3.7,3.26-8.46,4.89-14.28,4.89-2.23,0-4.68-.43-7.34-1.3-2.67-.86-4.65-2-5.96-3.4.39-1.19.67-2.28.84-3.28.17-1,.35-2.31.55-3.93Z"/><path class="cls-1" d="m276.01,171.97c-.04-1.04-.96-25.89-9.37-51.16-11.68-35.07-32.17-53.6-59.26-53.6H68.83c-27.08,0-47.57,18.53-59.25,53.6C1.16,146.08.24,170.93.21,171.97l-.21,6.28h276.22l-.21-6.28Zm-263.22-5.86c1.92-20.9,11.5-86.76,56.04-86.76h138.55c44.54,0,54.13,65.86,56.05,86.76H12.79Z"/><path class="cls-2" d="m263.43,166.11H12.79c1.92-20.9,11.5-86.76,56.04-86.76h138.55c44.54,0,54.13,65.86,56.05,86.76Z"/><path class="cls-1" d="m145.62,309.91h-12.14v-21.06c0-13.86,5.4-26.88,15.19-36.68l41.99-41.99c7.5-7.5,11.64-17.48,11.64-28.1v-9.9h12.14v9.9c0,13.86-5.4,26.88-15.19,36.68l-41.99,41.99c-7.5,7.5-11.64,17.48-11.64,28.1v21.06Z"/><path class="cls-1" d="m167.49,324.09v113.42h-12.14v-113.42c0-4.47-3.63-8.11-8.1-8.11h-15.41c-4.47,0-8.11,3.64-8.11,8.11v113.42h-12.13v-113.42c0-11.16,9.08-20.25,20.24-20.25h15.41c11.16,0,20.24,9.09,20.24,20.25Z"/><path class="cls-1" d="m213.19,456.37c-6.1-16.76-22.18-28.03-40.01-28.03h-67.27c-17.83,0-33.91,11.27-40.01,28.03l-10.41,28.62h168.1l-10.4-28.62Zm-140.37,16.48l4.49-12.34c4.36-11.98,15.85-20.03,28.6-20.03h67.27c12.75,0,24.24,8.05,28.6,20.04l4.48,12.33H72.82Z"/><rect class="cls-1" x="348.49" width="12.14" height="552.2"/></g></svg>