<!DOCTYPE svg PUBLIC "-//W3C//DTD SVG 1.1//EN" "http://www.w3.org/Graphics/SVG/1.1/DTD/svg11.dtd">
<svg xmlns="http://www.w3.org/2000/svg" viewBox="0 0 411 189">
<path fill="#fcfbfb" stroke="#fcfbfb" d="M126 6.725c0 .454 1.8 16.722 4 36.151 2.2 19.428 4 35.729 4 36.224 0 1.079 15.994 1.229 16.014.15.05-2.703 3.978-34.576 4.301-34.898.22-.22 1.214 7.711 2.21 17.624L158.336 80h7.832c6.046 0 7.832-.319 7.832-1.4 0-.77 1.8-17.296 4-36.724 2.2-19.429 4-35.449 4-35.601 0-.151-2.214-.275-4.921-.275-5.953 0-5.237-2.518-8.1 28.5-1.168 12.65-2.448 23.843-2.845 24.873-.402 1.04-1.729-8.961-2.987-22.5C159.995 2.947 160.852 6 154.477 6h-5.301l-.549 3.75c-.302 2.063-1.563 14.55-2.803 27.75-2.599 27.674-2.615 27.655-6.037-7.5L137.5 6.5l-5.75-.3c-3.162-.165-5.75.072-5.75.525M195 43v37h11V48h13v32h12V6h-12v15.5c0 14.052-.163 15.511-1.75 15.613-.963.062-3.775.175-6.25.25l-4.5.137-.275-15.75L205.949 6H195v37m51.456-35.745c-.265.691-.364 17.228-.219 36.75L246.5 79.5l5.75.3 5.75.3V6h-5.531c-3.515 0-5.707.458-6.013 1.255M270 11.5V17h11.972l.264 31.25.264 31.25h11l.264-31.25.264-31.25H306V6h-36v5.5m48 31.397V80h9.818c21.017 0 24.682-3.166 24.682-21.327V46.846l-3.657-3.351c-2.629-2.409-3.263-3.503-2.256-3.89 5.337-2.048 7.626-19.464 3.457-26.301-3.557-5.833-6.131-6.766-19.749-7.157L318 5.794v37.103m44.234-35.698c.268.716 3.7 12.159 7.626 25.429 7.06 23.857 7.14 24.26 7.14 35.75V80h11V68.109c0-11.804.051-12.066 7-35.538 8.502-28.719 8.371-26.754 1.75-26.373l-5.25.302-3.757 14.5c-2.066 7.975-4.029 15.175-4.362 16-.333.825-2.501-5.7-4.817-14.5l-4.212-16-6.303-.301c-4.847-.232-6.19-.001-5.815 1M329 26.031c0 10.062.417 10.676 6.48 9.539 4.074-.765 6.103-5.837 4.932-12.335-.947-5.257-2.05-6.235-7.034-6.235H329v9.031M57.5 36.474c-2.2 1.355-5.042 2.478-6.315 2.495-2.936.039-12.328 3.915-13.799 5.695-.932 1.126-1.706 1.1-4.718-.158-6.018-2.515-7.453-2.06-8.652 2.744-.584 2.337-1.608 5.15-2.276 6.25-3.909 6.44-7.466 15.108-6.621 16.135.645.782.072 1.347-1.842 1.818-7.028 1.728-8.708 4.729-5.314 9.494 1.079 1.516 2.415 4.779 2.969 7.252 1.349 6.019 4.614 13.483 6.117 13.984.904.301.797 1.214-.417 3.561-3.014 5.83-1.824 9.256 3.215 9.256.926 0 3.252.91 5.169 2.023 7.327 4.253 14.252 7.027 16.089 6.444 1.298-.412 1.895-.118 1.895.932 0 2.794 3.344 8.602 4.935 8.57.861-.017 3.365-1.14 5.565-2.495 2.2-1.355 5.042-2.466 6.315-2.469 2.898-.006 12.31-3.867 13.792-5.658.918-1.11 1.639-1.071 4.244.228 5.324 2.657 7.413 1.66 9.378-4.473.951-2.969 2.378-6.119 3.171-7 2.04-2.266 5.652-11.804 5.057-13.354-.315-.821 1.034-1.837 3.68-2.772 5.939-2.099 6.65-3.766 3.644-8.542-1.361-2.164-2.805-5.734-3.207-7.934-.836-4.569-4.184-12.641-5.609-13.521-.575-.356-.31-2.238.668-4.728 2.177-5.54 1.463-6.79-4.936-8.651-2.99-.869-5.958-2.21-6.597-2.98-1.428-1.72-12.93-6.123-13.779-5.274-.338.338-1.653-1.627-2.922-4.366-2.635-5.688-3.389-5.9-8.899-2.506m-1 2.104c-2.2 1.314-5.125 2.402-6.5 2.418-1.375.017-4.735 1.064-7.467 2.327l-4.967 2.298 5.281 4.959c4.392 4.124 5.748 6.28 8.053 12.812 2.58 7.307 3.034 7.943 6.532 9.146l3.759 1.292 3.496-7.665c4.118-9.029 4.376-13.574 1.325-23.415-2.369-7.641-3.139-7.979-9.512-4.172m-30.465 7.357c-.569 1.064-1.035 2.8-1.035 3.86 0 1.059-1.146 3.615-2.548 5.68-3.479 5.127-6.608 13.489-5.106 13.644.635.066 3.693.027 6.797-.085 4.577-.167 7.188.474 13.825 3.392 8.081 3.553 8.22 3.576 11.155 1.842 3.306-1.952 3.298-2.394-.193-11.726-3.238-8.653-7.306-12.462-18.145-16.988-3.508-1.465-3.774-1.444-4.75.381m43.85-.672c-.063.68-.041 3.937.049 7.237.138 5.028-.411 7.188-3.385 13.331-4.076 8.42-4.136 8.848-1.689 12.029l1.815 2.36 7.399-2.36c8.679-2.768 13.776-7.193 17.502-15.196 3.38-7.259 3.194-8.358-1.547-9.159-2.183-.369-5.085-1.548-6.449-2.62-3.986-3.136-13.561-7.066-13.695-5.622M329.216 57.75l.284 10.75 4.693.302c6.517.42 8.184-2.126 7.644-11.676-.49-8.668-1.641-10.126-7.993-10.126h-4.912l.284 10.75M87.72 71.487c-3.046 3.563-5.401 5.038-12.12 7.59-7.623 2.896-8.431 3.465-9.401 6.627l-1.062 3.46 7.679 3.646c9.11 4.327 15.331 4.635 24.434 1.21 6.478-2.438 6.665-2.932 3.224-8.52-1.355-2.2-2.466-5.042-2.469-6.315-.007-3.182-3.994-12.192-5.378-12.152-.62.018-2.828 2.022-4.907 4.454m-67.45-.463c-2.327.476-6.256 1.761-8.731 2.856l-4.5 1.99 2.98 5.667c1.64 3.116 2.991 6.633 3.003 7.815.032 3.165 3.675 10.649 5.179 10.641.714-.004 2.352-1.554 3.64-3.444 3.022-4.438 5.138-5.766 14.473-9.08 5.276-1.873 7.69-3.236 7.7-4.349.007-.891.265-2.558.573-3.703 1.125-4.19-15.989-10.096-24.317-8.393m29.036 5.574L46.5 79.195l2.885-2.097c4.034-2.934 8.717-2.723 11.979.538 1.45 1.45 2.636 2.158 2.636 1.573 0-4.809-10.336-6.646-14.694-2.611m2.711.695c-3.489 1.755-4.864 6.11-2.984 9.445 3.558 6.31 12.138 4.368 12.766-2.888.467-5.411-4.904-9.011-9.782-6.557M46.252 83.5c.011 2.2.216 2.982.455 1.738.239-1.244.23-3.044-.02-4s-.446.062-.435 2.262m17.943 0c.02 1.65.244 2.204.498 1.231.254-.973.237-2.323-.037-3-.274-.677-.481.119-.461 1.769m-29.061 5.968c-7.788 2.892-12.303 7.107-16.295 15.212-3.52 7.144-3.37 7.697 2.473 9.168 2.39.602 5.518 2.017 6.952 3.145 2.47 1.943 9.814 5.007 12.002 5.007.627 0 .804-2.033.463-5.335-.303-2.935-.206-5.892.214-6.573.442-.715 1.034 1.055 1.403 4.198.799 6.798 3.645 15.769 5.191 16.363.642.246 3.326-.7 5.964-2.103 2.638-1.402 5.659-2.55 6.713-2.55C63.195 126 72 121.898 72 120.51c0-.684-1.757-2.407-3.904-3.828-4.078-2.699-7.847-9.245-10.037-17.432-.773-2.891-1.684-4.254-2.848-4.264-.941-.007-2.628-.26-3.748-.561-1.701-.457-2.525.476-5 5.659-1.63 3.413-3.101 5.502-3.271 4.642-.169-.861.859-3.867 2.285-6.681 2.531-4.994 2.551-5.189.843-8.081-2.085-3.53-2.917-3.566-11.186-.496m14.172.934c3.494 3.235 8.501 3.454 11.833.518l2.361-2.08-2.473 1.58c-3.423 2.188-8.215 1.975-11.642-.518L46.5 87.805l2.806 2.597m83.993 1.558c-11.012 6.713-9.451 21.691 3.694 35.454C145.491 136.312 147 138.587 147 142.5c0 4.508-1.704 6.5-5.56 6.5-3.842 0-5.44-2.368-5.44-8.065 0-2.866-.121-2.935-5.139-2.935h-5.139l.548 6.036c.923 10.188 5.939 14.957 15.73 14.957 9.595 0 14.7-4.683 15.703-14.407.868-8.408-1.425-13.212-11.266-23.596-6.241-6.585-8.475-9.678-8.996-12.452-1.85-9.861 7.929-12.581 10.023-2.788.673 3.147.856 3.25 5.751 3.25h5.057l-.619-4.517c-1.355-9.882-6.322-14.476-15.653-14.476-3.695 0-6.551.641-8.701 1.953m34.115-1.043c-.228.229-.414 2.366-.414 4.75V100h10.97l.265 29.25.265 29.25 5.235.302 5.235.301.265-29.301.265-29.302 5.25-.302 5.25-.303v-8.8l-16.086-.297c-8.847-.164-16.272-.11-16.5.119m166.484 1.353c-6.418 4.288-6.895 6.498-6.896 32.012-.002 24.669.41 27.068 5.45 31.718 2.41 2.224 3.576 2.5 10.548 2.5 8.761 0 11.872-1.748 14.629-8.218 2.249-5.279 1.941-47.642-.381-52.262-3.951-7.865-15.812-10.786-23.35-5.75m44.284-.24c-4.722 2.879-7.588 9.749-6.89 16.513.742 7.183 3.44 11.869 11.206 19.457 7.268 7.102 9.502 10.515 9.502 14.516 0 4.466-1.712 6.484-5.5 6.484-4.001 0-5.5-2.026-5.5-7.434V138h-10v4.684c0 10.453 5.808 16.319 16.151 16.312 10.212-.007 15.282-5.645 15.282-16.996 0-8.167-1.717-11.525-10.104-19.765-7.45-7.32-10.32-11.642-10.325-15.551-.012-8.563 9.204-9.637 10.158-1.184.324 2.874.564 3.013 5.71 3.306l5.372.307-.701-4.807c-1.801-12.337-14.097-18.533-24.361-12.276M62 92.5c-.685.825-1.834 1.5-2.554 1.5-2.224 0 3.329 14.745 7.143 18.967 3.555 3.935 11.402 8.638 15.336 9.192 2.137.301 2.567-.213 3.626-4.331.661-2.57 2.127-5.971 3.257-7.558 2.717-3.816 5.621-11.174 4.753-12.042-.379-.379-3.698-.563-7.375-.41-5.926.249-7.519-.123-14.017-3.269-8.368-4.05-8.488-4.075-10.169-2.049m149 26.532c0 30.295.279 32.196 5.42 36.938 3.755 3.464 14.549 4.097 19.276 1.131 6.742-4.232 6.771-4.381 7.11-36.804L243.111 91H233v25.851c0 15.674-.418 27.051-1.063 28.9-1.269 3.639-4.491 4.771-7.665 2.692L222 146.954V91h-11v28.032m45.733 5.718.233 33.75 11.427-.076c19.905-.132 20.598-1.266 20.603-33.724.005-32.72-.599-33.69-20.996-33.696L256.5 91l.233 33.75M303 125v34h10V91h-10v34m-35.25-24.426c-.413.417-.75 11.484-.75 24.593V149h3.809c7.661 0 7.691-.095 7.691-24.371 0-14.659-.36-21.89-1.129-22.658-1.392-1.392-8.594-2.438-9.621-1.397m71.45.626c-1.701 1.701-1.701 44.899 0 46.6 1.547 1.547 6.053 1.547 7.6 0 1.701-1.701 1.701-44.899 0-46.6-1.547-1.547-6.053-1.547-7.6 0M6 174.998V178H403.133l-.317-2.75-.316-2.75-198.25-.252L6 171.995v3.003" fill-rule="evenodd"/>
<path fill="#efdca1" stroke="#efdca1" d="M126.369 8.75c.29 1.512 1.24 9.5 2.112 17.75.871 8.25 1.998 18.375 2.504 22.5.507 4.125 1.47 12.563 2.14 18.75l1.22 11.25h7.828c4.767 0 7.827-.408 7.827-1.043 0-2.299 3.048-29.688 3.668-32.957l.663-3.5.715 4.5c.393 2.475 1.31 10.912 2.037 18.75L158.405 79H174l.128-4.25c.07-2.338.252-5.15.405-6.25.443-3.192 6.524-56.74 6.756-59.5.194-2.304-.157-2.524-4.481-2.802-3.953-.255-4.698-.019-4.734 1.5-.024.991-.46 5.177-.971 9.302-.511 4.125-1.15 9.975-1.42 13-2.02 22.602-3.085 31.629-3.825 32.45-.499.552-.87-.286-.888-2-.016-1.623-1.155-13.75-2.531-26.95-1.376-13.2-2.514-24.81-2.529-25.8-.023-1.539-.782-1.757-5.218-1.5l-5.192.3-.704 5.5c-.388 3.025-1.674 15.625-2.859 28s-2.301 22.658-2.481 22.852c-.536.578-1.222-5.17-3.442-28.852-2.875-30.676-2.046-28-8.673-28-5.461 0-5.496.019-4.972 2.75M195 42.5v36.605l5.25-.303 5.25-.302.276-15.25.276-15.25h12.686l.623 3.75c.342 2.063.468 9.038.28 15.5L219.298 79h11.727l-.263-36.25L230.5 6.5h-11l-.011 15.5-.012 15.5-6.713.295-6.713.295-.275-15.795L205.5 6.5l-5.25-.302-5.25-.303V42.5m52 0V79h11.035l-.06-36.5-.06-36.5H247v36.5m23.411-35.129c-.299.78-.402 3.153-.228 5.274l.317 3.855h11l.264 31.25.264 31.25h11.944l.264-31.25.264-31.25h11v-10l-17.272-.274c-14.173-.224-17.37-.019-17.817 1.145m48.339-.799c-.413.419-.75 16.886-.75 36.595V79h11.532c7.538 0 12.675-.478 14.832-1.379 3.8-1.588 7.947-6.367 7.205-8.303-.279-.725-.018-1.318.579-1.318 1.764 0 .644-19.887-1.186-21.044-.804-.509-1.012-.951-.462-.981.55-.031-.512-1.35-2.361-2.931l-3.36-2.874 2.189-1.835c7.846-6.576 6.392-25.417-2.32-30.071-3.355-1.792-24.442-3.169-25.898-1.692m44.25.802c0 .756 2.29 8.969 5.09 18.25a5326.96 5326.96 0 0 1 6.955 23.217c1.301 4.422 1.913 9.948 2.02 18.25L377.219 79H388V67.035c0-11.847.066-12.186 6.637-34.25 8.944-30.027 8.676-26.96 2.324-26.592l-5.294.307-3.83 15c-2.106 8.25-4.108 15.675-4.447 16.5-.497 1.209-4.583-12.453-8.746-29.25-.641-2.583-1.016-2.75-6.163-2.75-3.982 0-5.481.376-5.481 1.374M329 26.5V36h4.378c5.955 0 7.122-1.67 7.122-10.19 0-7.903-.716-8.771-7.25-8.795L329 17v9.5M57 36.462c-2.475 1.287-7.829 3.378-11.898 4.646-4.944 1.541-7.55 2.888-7.857 4.064-.433 1.655-.687 1.643-4.313-.207C30.813 43.884 28.192 43 27.107 43c-1.983 0-2.416.807-3.601 6.703-.355 1.762-1.494 4.283-2.531 5.602-2.46 3.127-6.203 12.657-5.595 14.243.286.746-1.311 1.918-4.027 2.955-5.717 2.183-6.108 3.352-2.934 8.768C9.838 83.694 11 86.678 11 87.902c0 2.811 3.882 12.238 5.638 13.694 1.09.903 1.04 1.814-.287 5.192-2.16 5.499-1.439 6.754 4.952 8.612 2.99.869 5.985 2.242 6.657 3.052 1.592 1.918 11.599 5.655 13.346 4.984.899-.345 1.747.796 2.528 3.404 1.882 6.283 3.375 6.909 9.078 3.804C55.584 129.19 58.48 128 59.348 128c2.471 0 12.492-3.983 14.123-5.613 1.292-1.293 1.842-1.277 4.567.132 5.124 2.65 7.204 1.699 8.79-4.019.763-2.75 1.995-5.69 2.739-6.534 2.16-2.45 6.436-12.794 5.884-14.233-.311-.81.768-1.772 2.82-2.514 7.099-2.567 7.326-3.138 3.837-9.676C100.399 82.34 99 78.778 99 77.629 99 74.468 94.803 65 93.402 65c-.853 0-.57-1.561.921-5.09 2.313-5.475 1.272-7.91-3.382-7.91-.922 0-5.639-2.022-10.482-4.493-4.843-2.471-9.065-4.21-9.383-3.863-.317.346.099.866.924 1.155.825.289 4.683 2.199 8.573 4.245 3.89 2.045 8.497 4.032 10.238 4.415 4.514.991 4.557 1.537.725 9.196-4.554 9.103-7.839 12.037-17.161 15.328l-7.762 2.739-2.119-3.111-2.119-3.111 3.562-7.5c3.17-6.672 3.566-8.405 3.592-15.696.017-4.508-.193-7.974-.465-7.701-.272.272-1.497-1.778-2.723-4.554-2.514-5.697-3.068-5.85-9.341-2.587m.136 1.669C54.186 39.709 50.71 41 49.413 41 46.924 41 38 44.943 38 46.043c0 .354 2.204 2.502 4.897 4.773 4.172 3.518 5.338 5.348 7.866 12.346 2.754 7.625 3.234 8.309 6.666 9.497l3.698 1.28 3.629-7.64C68.88 57.616 69.305 52.772 66.713 44c-2.624-8.882-3.238-9.259-9.577-5.869m-31.518 7.421c-.34.886-.618 2.369-.618 3.295 0 .926-.91 3.252-2.023 5.169-1.112 1.916-3.162 5.917-4.556 8.89-3.043 6.492-2.507 7.093 5.665 6.352 5.201-.471 6.624-.143 13.469 3.108 8.811 4.184 9.151 4.229 12.282 1.62l2.337-1.947-1.724-5.27c-3.689-11.275-6.663-14.916-15.95-19.526-6.377-3.167-8.183-3.51-8.882-1.691m304.074 1.137c-.459.743-1.01 16.095-.756 21.061.107 2.082 9.429 1.609 11.409-.579 2.54-2.807 2.347-16.234-.267-18.601-2.163-1.957-9.516-3.289-10.386-1.881M87.847 71.196c-4.516 4.516-6.828 5.922-13.642 8.294C67.216 81.923 66 82.679 66 84.591c0 1.235-.231 2.848-.514 3.584-.348.908 2.271 2.574 8.141 5.179 9.788 4.344 15.246 4.44 24.623.43 5.533-2.365 5.504-2.259 2.25-8.38-1.375-2.586-2.518-5.647-2.54-6.803-.022-1.156-1.083-4.518-2.358-7.472l-2.318-5.37-5.437 5.437m-70.286-.098c.205.333-1.524 1.168-3.844 1.857-6.716 1.993-7.117 2.686-4.319 7.461 1.336 2.28 2.761 5.916 3.167 8.081 1.133 6.038 4.349 12.67 5.742 11.84.656-.391 2.868-2.595 4.916-4.897 3.474-3.905 5.698-5.099 17.931-9.622 2.307-.853 5.048-7.069 3.66-8.302-3.805-3.38-14.149-6.894-20.471-6.954-3.936-.038-6.988.204-6.782.536m31.634 5.391C42.005 82.539 46.026 93 55.542 93c2.659 0 4.383-.771 6.535-2.923 8.659-8.659-3.498-21.484-12.882-13.588m.26.966c-5.273 5.272-1.584 14.584 5.75 14.513 3.67-.035 5.895-1.391 7.632-4.652 4.402-8.265-6.756-16.488-13.382-9.861m1 1c-5.949 5.948 2.017 16.342 8.632 11.263 4.766-3.659 4.398-10.265-.702-12.588-3.651-1.664-5.201-1.405-7.93 1.325M38.5 88.122c-12.994 4.983-14.723 6.476-20.363 17.588-3.001 5.912-2.754 6.71 2.508 8.117 2.554.684 5.817 2.066 7.25 3.071 3.626 2.546 12.293 6.247 12.992 5.549.317-.318.497-3.361.398-6.763l-.18-6.184 1.319 7c1.471 7.804 3.976 14.5 5.426 14.5.523 0 3.359-1.121 6.301-2.49 2.942-1.37 6.099-2.495 7.016-2.5 2.741-.016 10.833-3.847 10.833-5.129 0-.654-1.812-2.74-4.026-4.635-3.998-3.423-7.854-9.246-6.121-9.246.497 0 1.421 1.247 2.052 2.771 1.469 3.547 6.678 7.691 13.719 10.915 6.183 2.83 6.512 2.684 8.306-3.686.697-2.475 1.881-5.191 2.63-6.037 2.161-2.435 5.649-10.975 5.085-12.447-.383-.997-2.023-1.201-6.43-.802-5.246.476-6.88.123-14.43-3.12-8.469-3.638-8.53-3.648-11.651-1.875-1.725.979-2.926 2.344-2.667 3.031.259.688.034 1.25-.498 1.25-.533 0-.969-.357-.969-.793 0-.437-1.763-1.264-3.918-1.84l-3.918-1.045-3.073 6.589c-1.69 3.624-3.077 5.811-3.082 4.861-.005-.95 1.201-4.195 2.681-7.212 2.538-5.175 2.594-5.589 1-7.351-.93-1.026-1.69-2.394-1.69-3.038 0-1.459-.349-1.408-6.5.951m95.278 4.081c-10.795 6.258-9.335 22.251 3.13 34.297 10.416 10.065 13.321 18.338 7.727 22.004-4.653 3.048-8.635-.219-8.635-7.086V138h-10.28l.572 5.541c1.041 10.085 6.421 15.454 15.49 15.457 9.176.004 14.438-4.688 15.721-14.018 1.103-8.023-.886-12.247-10.671-22.659-8.792-9.355-10.499-12.606-9.669-18.415.987-6.905 11.515-4.477 10.762 2.482-.164 1.521 2.418 2.581 6.325 2.597 4.126.017 4.223-.224 2.721-6.733-2.423-10.502-13.861-15.458-23.193-10.049m201.231-.348c-7.318 3.925-8.149 7.504-7.808 33.645.325 25.002.7 26.896 6.122 30.91 3.502 2.593 17.677 2.848 17.677.318 0-.465.414-.59.92-.277 1.378.851 4.927-4.171 6.145-8.694 1.896-7.038.816-46.558-1.381-50.586-3.473-6.363-14.622-9.098-21.675-5.316m44.247-.21c-4.944 2.437-7.471 7.326-7.578 14.66-.118 8.079 2.295 12.686 11.406 21.779 7.421 7.406 8.916 9.998 8.916 15.458 0 8.655-10.026 8.132-11-.574-.496-4.433-.532-4.47-4.659-4.771-5.017-.366-6.215 2.447-4.292 10.083.996 3.955 5.924 10.683 5.966 8.144.009-.508.411-.3.894.463 1.513 2.389 10.212 2.595 15.264.361 5.667-2.507 7.827-6.701 7.827-15.199 0-7.741-1.49-10.657-9.986-19.549-8.775-9.184-10.017-11.168-9.999-15.973.022-5.629.985-6.723 5.587-6.346 3.702.303 3.946.536 4.85 4.616l.952 4.296 4.548-.296c4.537-.296 4.547-.305 4.263-3.797-.969-11.905-12.406-18.558-22.959-13.355M167.193 95.25l.307 4.25 5.5.5 5.5.5.265 28.75c.203 21.944.558 28.77 1.5 28.833.679.046 2.36.209 3.735.362 5.12.569 5 1.281 5-29.552V100h11v-9H166.885l.308 4.25M211 118.134c0 30.426.485 33.608 5.728 37.607 5.855 4.467 16.631 4.1 21.387-.728 4.178-4.242 4.358-5.583 4.718-35.263l.349-28.75h-10.228l.078 26.774c.086 29.341.012 29.884-4.323 31.706-6.49 2.729-6.709 1.743-6.709-30.202V91h-11v27.134m46 6.261V158h11.461c10.571 0 11.631-.175 13.647-2.25 1.202-1.238 1.862-1.575 1.467-.75-.396.825.395.197 1.757-1.396 3.421-4.001 3.668-6.004 3.668-29.709C289 102.931 287.834 95 284.752 95c-.567 0-1.607-.787-2.31-1.749-1.067-1.459-3.278-1.807-13.36-2.105L257 90.789v33.606m46 .16v33.555l4.75-.305 4.75-.305.263-33.25.264-33.25H303v33.555M58.357 99.343c.358 1.013.923 2.926 1.256 4.25.332 1.324.982 2.407 1.443 2.407 1.001 0-.892-6.068-2.34-7.5-.678-.672-.796-.395-.359.843M267 124.5V149h4.443c7.259 0 7.557-.967 7.557-24.5s-.298-24.5-7.557-24.5H267v24.5m71.241-22.808c-.408.994-.741 11.632-.741 23.639 0 23.391.285 24.669 5.5 24.669 5.068 0 5.48-1.575 5.805-22.168.398-25.2-.014-27.232-5.604-27.64-3.313-.242-4.378.081-4.96 1.5M6 175.5v2.505l198.25-.253c197.499-.251 198.25-.26 198.25-2.252 0-1.992-.751-2.001-198.25-2.252L6 172.995v2.505" fill-rule="evenodd"/>
<path fill="#fad468" stroke="#fad468" d="M126.5 7c-.34.55.196 1.007 1.191 1.015 1.534.013 1.581.163.309.985-1.076.696-1.133.974-.2.985.895.01 1.022.511.407 1.61-1.036 1.852-.39 6.405.91 6.405.485 0 .883.477.883 1.059s-.338.85-.75.595c-.623-.385-.807 4.692-.229 6.346.096.275.189 1.962.206 3.75.029 2.956.764 3.749 3.097 3.344.454-.079.535.325.181.898-.354.572-1.062.782-1.574.465-.512-.316-.931-.125-.931.425s.451 1.279 1.003 1.62c.665.411.646 1.285-.056 2.596-.582 1.088-.738 2.973-.346 4.19.922 2.867 1.364 5.993 1.762 12.472.178 2.893.619 5.556.98 5.917.362.361.657 2.636.657 5.055 0 2.42.466 5.27 1.035 6.334.714 1.333.714 1.934 0 1.934-.569 0-1.035.684-1.035 1.52 0 1.075.731 1.387 2.5 1.066 1.375-.25 2.5.022 2.5.603 0 .713.436.694 1.342-.058.738-.612 1.638-.818 2-.456.362.362.658.047.658-.699 0-.879.518-.674 1.468.583.827 1.093 1.482 1.395 1.5.691.018-.687 1.044-1.257 2.282-1.265 1.639-.011 1.882-.249.897-.873-.98-.621-1.08-1.376-.363-2.735.869-1.649 1.54-5.332 2.618-14.377.185-1.556-.307-2.757-1.302-3.18-1.396-.593-1.377-.688.15-.75 1.72-.069 2.189-1.834 1.797-6.759-.096-1.205.469-3.418 1.256-4.92l1.43-2.729 1.12 3.419c.617 1.88.884 4.702.596 6.271-.296 1.607.037 3.546.763 4.442.979 1.209.988 1.41.038.839-.687-.413-1.25-.301-1.25.249s.457 1.283 1.016 1.628c.559.346.808.966.552 1.379-.602.975 1.896 14.863 3.257 18.111.902 2.151 1.059 2.221 1.127.5.061-1.553.276-1.688.962-.605.625.987 2.084 1.234 4.985.845 2.696-.361 3.882-.195 3.462.485-.36.582-.032.828.75.561.808-.275 1.33-1.689 1.248-3.38-.078-1.598.299-5.606.838-8.906.539-3.3 1.105-9.207 1.257-13.127.152-3.92.606-7.661 1.009-8.313.403-.652-.099-2.162-1.115-3.356-1.392-1.634-1.438-1.853-.187-.888 1.12.864 1.872.94 2.309.233.356-.577.183-1.049-.386-1.049-.646 0-.73-.845-.224-2.25.445-1.237.918-4.621 1.05-7.519.132-2.897.625-6.61 1.095-8.25.528-1.84.486-2.981-.11-2.981-.62 0-.62-.645 0-1.804 1.27-2.374 2.024-10.128 1.044-10.734-.423-.261-.996.091-1.275.782-.402.998-.522.999-.585.006-.043-.687-1.231-1.25-2.638-1.25-1.407 0-2.3.419-1.984.931.317.512.204 1.161-.251 1.442-.454.28-.937 2.645-1.072 5.254-.135 2.609-.515 5.18-.844 5.713-.33.534-.081.649.555.255.635-.392 1.155-.236 1.155.346S172.508 21 171.907 21c-.699 0-.969 1.981-.75 5.501.189 3.026.08 5.501-.241 5.5-.321 0-.546 2.249-.5 4.999.046 2.751-.232 5.113-.618 5.25-.386.138-.836 4.3-1 9.25-.344 10.376-2.569 15.161-4.553 9.79-1.028-2.783-1.166-4.007-1.364-12.04-.057-2.337-.504-4.25-.993-4.25-.488 0-.888-.477-.888-1.059s.402-.81.894-.507c.491.304.829-.569.75-1.94-.079-1.371-.467-2.493-.863-2.493-.395-.001-.459-.676-.143-1.501.337-.877.012-1.506-.781-1.515-1.047-.012-1.014-.237.143-.985 1.333-.862 1.333-.973 0-1-.883-.018-1.089-.333-.5-.765 1.186-.872 1.504-8.235.355-8.235-.436 0-.533-.675-.217-1.5.317-.825.126-1.5-.424-1.5s-1.283-.739-1.63-1.641c-.527-1.373-.38-1.435.893-.378 1.845 1.531 1.843 1.645.06-4.231-.793-2.613-1.027-4.75-.521-4.75 1.132 0 .033-3.224-1.443-4.235-1.579-1.081-6.358-.922-7.073.235-.34.55.196 1.029 1.191 1.063 1.457.051 1.371.24-.441.968-1.673.673-2.263 1.746-2.302 4.187-.071 4.42-.789 16.958-1.378 24.063-.36 4.34-.179 5.601.725 5.058.89-.534.93-.346.15.719-2.672 3.655-3.524 7.043-1.693 6.735.961-.161 2.029-.679 2.373-1.15.344-.471.933-.358 1.309.25.376.609.207 1.163-.375 1.232l-2.309.271c-.76.089-1.141 1.315-.971 3.125.187 2.007-.012 2.543-.612 1.644-1.058-1.586-2.128 1.552-2.16 6.335l-.019 3-1.494-2.864c-.822-1.576-1.501-4.951-1.509-7.5-.012-3.58-.261-4.294-1.095-3.136-.859 1.195-.924 1.094-.318-.5 1.041-2.735.698-7.91-.551-8.326-.561-.187-1.014-1.091-1.006-2.007.014-1.447.15-1.469 1.031-.167.747 1.105.853.71.401-1.5-.965-4.715-1.375-5.662-2.226-5.137-.436.27-.792-.37-.792-1.422 0-1.257.338-1.574.985-.927 1.794 1.794 2.929 1.022 1.241-.843-.91-1.006-1.648-2.468-1.64-3.25.013-1.175.183-1.162.985.079.582.901.975 1.025.985.309.008-.655-.466-1.488-1.053-1.851-.588-.363-.818-1.313-.512-2.111.311-.81.121-1.181-.431-.84-1.366.844-1.246-.85.16-2.256.865-.865.75-1.756-.463-3.607-1.392-2.124-1.412-2.535-.148-3.02 1.991-.764 1.836-2.25-.475-4.561-1.319-1.319-1.558-2.093-.75-2.422.653-.266-.924-.519-3.504-.562-2.58-.043-4.969.371-5.309.921m70.441.571c-1.322 1.593-1.793 63.91-.494 65.21.304.304.521 1.265.483 2.136-.052 1.164-.298 1.054-.93-.417-.701-1.63-.872-1.688-.93-.309-.038.93.387 1.974.946 2.319.559.346.714 1.118.344 1.717-.45.728.124.875 1.734.444 1.323-.354 3.531-.657 4.906-.673 1.983-.023 2.19-.229 1-.998-1.333-.862-1.333-.973 0-1 1.333-.027 1.333-.138 0-1-.953-.616-1.054-.975-.279-.985.885-.011 1.298-3.662 1.5-13.265.255-12.093.437-13.237 2.093-13.1 1.719.141 1.724.05.095-1.75-.945-1.045-1.269-1.9-.719-1.9.55 0 1.815.9 2.81 2 1.821 2.012 8.187 2.921 7 1-.34-.55-.141-1 .441-1s1.059.45 1.059 1 .599 1 1.331 1c1.04 0 1.357 3.114 1.45 14.25.065 7.838.141 14.613.169 15.057.027.445 1.962.67 4.3.5l4.25-.307.283-34.647.284-34.646-4.52-.36c-2.495-.198-4.646.091-4.802.647-.274.98.015 22.013.358 26.006.407 4.747-.207 4.972-11.603 4.253l-4-.253-.275-15.709c-.247-14.078-.445-15.644-1.914-15.08-1.097.421-1.4.242-.916-.541.434-.702.1-1.17-.836-1.17-.857 0-1.559.402-1.559.893s-.739 1.176-1.641 1.523c-1.373.527-1.435.38-.378-.893.695-.838 1.039-1.523.764-1.523-.275 0-1.087.707-1.804 1.571m27.309-.882c.963.252 2.537.252 3.5 0 .963-.251.175-.457-1.75-.457s-2.713.206-1.75.457m23.703-.189c-.422 2.248.097 70.883.539 71.326.659.658 6.261.445 7.44-.284.574-.354 1.011-12.754 1.088-30.817.071-16.624.236-31.35.366-32.725.333-3.505-.297-4.303-2.225-2.816-1.465 1.13-1.459 1.044.049-.736 1.62-1.911 1.609-2.08-.211-3.216-2.104-1.315-4.958-.681-5.069 1.125-.039.629-.457.243-.93-.857-.473-1.1-.944-1.55-1.047-1m24.71.296c-2.737.341-2.775.422-1.09 2.285.962 1.062 1.451 2.229 1.088 2.592-.364.363-.668.023-.676-.756-.013-1.167-.187-1.152-.985.083-1.287 1.991-1.257 4 .059 4 .582 0 .781-.45.441-1s-.141-1 .441-1 1.059.688 1.059 1.528c0 1.233.862 1.411 4.462.923 4.155-.563 4.505-.432 5.094 1.915.348 1.386.338 2.996-.021 3.577-.359.581-.226 1.057.295 1.057 1.227 0 .972 3.278-.33 4.235-.619.455-.524.74.25.75.927.011 1.25 3.002 1.25 11.574 0 6.357-.386 11.32-.858 11.029-.472-.292-.845 1.946-.829 4.973.018 3.397.357 5.013.886 4.221.5-.748.766 2.573.638 7.968-.121 5.088-.584 9.25-1.029 9.25-.444 0-.808.436-.808.969 0 .532.675.709 1.5.393.825-.317 1.5-.078 1.5.531S285.675 79 286.5 79s1.5-.505 1.5-1.122c0-.776.464-.738 1.5.122 1.242 1.031 1.503.923 1.515-.628.01-1.184.285-1.447.75-.714.655 1.033.644-23.227-.023-49.816-.133-5.311.099-9.445.515-9.186.416.259 1.031-.243 1.366-1.116.477-1.243 1.581-1.469 5.106-1.046 3.518.422 4.385.245 3.98-.811-.285-.742.094-1.35.842-1.35.749 0 1.148.344.889.765-.26.42-.015 1.046.544 1.392.559.345 1.016-.047 1.016-.872s-.41-1.753-.911-2.063c-1.043-.644-.916-2.441.31-4.405.649-1.039.412-1.154-1.028-.5-1.029.468-5.696.578-10.371.246l-8.5-.604 8.752.104c4.814.057 8.752-.26 8.75-.706-.002-.757-24.092-.673-30.339.106m46.055 3.268c-.665 4.957-.445 67.812.237 67.749.3-.027.995.045 1.545.16 1.126.237 14.725.203 15.5-.039.275-.085 1.556-.068 2.846.039 1.29.108 3.5-.855 4.911-2.139 1.411-1.284 2.241-1.771 1.845-1.084-.396.687-.243 1.25.339 1.25.582 0 1.059-.477 1.059-1.059s.337-.855.75-.605c1.032.625 2.679-1.42 3.09-3.836 1.172-6.882 1.247-9.69.291-10.843-.781-.941-.763-1.625.066-2.454.865-.865.857-1.788-.032-3.74-.675-1.482-.749-2.324-.173-1.968 1.509.933 1.22-.987-.742-4.929-.962-1.934-2.312-3.528-3-3.541-.687-.014-1.25-.502-1.25-1.084 0-.582-.375-.827-.833-.544-.459.283-.834-.12-.834-.897s.452-1.133 1.004-.792c.591.366.749-.042.384-.993-.44-1.147-.189-1.448.871-1.041.929.356 1.38.055 1.199-.801-.16-.755.197-1.285.792-1.179 1.395.251 1.55-.584 1.892-10.189.421-11.855-4.076-17.739-13.658-17.874-1.476-.02-2.457-.404-2.18-.852.277-.449-3.082-.711-7.464-.584l-7.967.231-.488 3.638m44.949-3.397c-1.287 1.287-.65 2.54.974 1.917 1.329-.51 1.416-.358.459.796-.918 1.106-.894 1.542.108 1.944.886.355.918.543.101.597-.876.058-.823.786.199 2.757.764 1.473 1.164 3.043.889 3.489-.276.445.117.573.873.283 1.064-.408 1.312.514 1.1 4.1-.228 3.883-.016 4.528 1.32 4.015 1.327-.509 1.382-.356.329.912-1.05 1.265-.968 1.523.481 1.523 1.438 0 1.526.264.5 1.5-.993 1.197-.993 1.803 0 3 .685.825.91 1.5.5 1.5-.41 0-.201.655.464 1.456.664.801.918 1.926.563 2.5-.355.574-.142 1.044.473 1.044s.859.419.543.931c-.317.512-.138 1.201.397 1.532.535.331.718 1.265.406 2.077-.311.811.154 2.573 1.033 3.915.883 1.348 1.304 3.208.94 4.157-.447 1.164-.283 1.484.511.993.743-.459 1.17-.001 1.17 1.253 0 1.086.563 2.202 1.25 2.48 1 .403 1 .52 0 .583-.916.058-1.25 2.9-1.25 10.638 0 6.898.352 10.341 1.016 9.931.559-.346.758-1.047.441-1.559-.88-1.425.51-1.107 2.097.48 1.485 1.485 5.025 1.079 6.126-.702.413-.668-.047-.805-1.266-.376-1.81.635-1.817.597-.132-.714 2.237-1.74 2.287-17.841.066-21.092-1.875-2.744-1.635-4.475.281-2.027 1.484 1.896 1.531 1.817.908-1.5-.432-2.295-.336-3.033.277-2.143.654.948 1.142 1.023 1.62.25.376-.609.454-1.107.173-1.107s.102-1.456.85-3.236c.92-2.187 1.052-3.812.409-5.014-.523-.978-.595-1.719-.159-1.646 2.043.342 2.424-.245 1.165-1.796-.932-1.15-.971-1.451-.122-.941 1.108.666 1.577-.961 1.16-4.027-.049-.363.626-1.061 1.5-1.55 2.01-1.124 2.063-2.79.09-2.79-.825 0-1.5-.4-1.5-.889s.788-.826 1.75-.75c1.35.107 1.702-.547 1.54-2.861-.116-1.65.07-2.329.414-1.509 1.048 2.506 3.156-5.11 2.158-7.798-.551-1.487-.501-2.088.141-1.691.548.339.997-.059.997-.884s-.457-1.783-1.016-2.128c-.559-.346-.817-.952-.572-1.347.244-.395-.733-.816-2.172-.935-3.107-.257-4.605 1.632-2.933 3.7.9 1.114.903 1.302.012.768-1.569-.941-2.602.901-2.778 4.951-.079 1.82-.53 3.66-1.002 4.091-.475.432-.495.154-.045-.623.549-.946.437-1.171-.342-.689-.855.528-.869 1.254-.055 2.775.638 1.193.683 1.801.108 1.445-.548-.338-1.268.095-1.6.962-.908 2.366-.701 3.107.395 1.412.678-1.049.974-1.115.985-.219.008.705-.66 1.541-1.485 1.857-.825.317-1.5.989-1.5 1.495 0 .505 1.35.22 3-.633s3-1.142 3-.642c0 .5-.945 1.156-2.101 1.458-1.155.302-1.807 1.025-1.448 1.605.385.622.067.831-.771.51-1.073-.412-1.329.147-1.039 2.261.328 2.382.244 2.505-.557.808-.918-1.946-.945-1.941-1.014.168-.137 4.244-3.07 7.904-3.07 3.832 0-.825-.47-1.5-1.044-1.5-.574 0-.971-.562-.881-1.25.33-2.543-.103-3.851-1.075-3.25-1.343.83-1.277-.823.087-2.187.783-.783.783-1.275 0-1.759-.598-.37-1.087-1.572-1.087-2.672 0-1.334-.416-1.75-1.25-1.249-.822.494-.772.162.147-.97 1.223-1.508 1.099-2.048-1-4.354-1.318-1.447-1.834-2.307-1.147-1.911 1.541.888 1.587.1.15-2.584-.783-1.465-.787-1.862-.011-1.383.666.412.869.101.522-.802-.66-1.719-3.189-2.884-4.501-2.073-.501.309-.91.118-.91-.424s-.562-1.178-1.25-1.413c-.687-.235-.265-.266.939-.07 1.204.197 2.468-.093 2.809-.645.691-1.119-7.728-1.441-8.831-.337M400 6.941c0 .518.445 1.216.989 1.552.566.35.734-.051.393-.941C400.717 5.82 400 5.503 400 6.941M393.5 8c-.34.55-.141 1 .441 1S395 8.55 395 8s-.198-1-.441-1-.719.45-1.059 1M134 9.378c0 .207.787.995 1.75 1.75 1.586 1.243 1.621 1.208.378-.378C134.821 9.084 134 8.555 134 9.378m41.079 2.205c.048 1.165.285 1.402.604.605.289-.722.253-1.585-.079-1.917-.332-.332-.568.258-.525 1.312m154.064.307c-.746.473-.971 1.094-.5 1.38.471.286 1.437-.108 2.146-.875 1.429-1.546.464-1.842-1.646-.505m15 1c-.834.529-.971 1.098-.355 1.479.552.341 1.26-.053 1.576-.875.662-1.727.6-1.757-1.221-.604M255 14c0 .55.477 1 1.059 1s.781-.45.441-1-.816-1-1.059-1-.441.45-.441 1m23.75-.338c.688.278 1.813.278 2.5 0 .688-.277.125-.504-1.25-.504s-1.937.227-1.25.504m115.329 1.921c.048 1.165.285 1.402.604.605.289-.722.253-1.585-.079-1.917-.332-.332-.568.258-.525 1.312M328 17.763c-1.375 1.404-1.937 2.23-1.25 1.836.688-.394 1.25-.24 1.25.342 0 .582-.562 1.066-1.25 1.074-.905.011-.934.218-.105.75.689.442 1.087 3.243 1 7.029-.132 5.752.049 6.343 2.105 6.859 1.238.31 2.282 1.303 2.32 2.205.061 1.41.167 1.427.75.121.374-.837 1.355-1.483 2.18-1.437.825.047 2.364-.619 3.42-1.479 1.758-1.432 1.867-1.42 1.3.136-.396 1.09-.188 1.534.581 1.239 1.352-.519 1.828-16.438.491-16.438-.435 0-.792-.675-.792-1.5 0-.859-.961-1.543-2.25-1.6-2.159-.095-2.148-.132.25-.9 1.957-.627 1.413-.799-2.5-.795-4.036.005-5.482.498-7.5 2.558m14.451-.684c-.253.41.204.648 1.015.529 2.09-.307 2.841-1.275.99-1.275-.849 0-1.751.336-2.005.746m27.698 2.588c-.743.805-1.144 1.671-.892 1.923.252.252 1.036-.238 1.743-1.09 1.669-2.011.916-2.749-.851-.833m20.93 10.916c.048 1.165.285 1.402.604.605.289-.722.253-1.585-.079-1.917-.332-.332-.568.258-.525 1.312m-2.476 2.25c-.283.459.12.834.897.834s1.18-.375.897-.834c-.283-.458-.687-.833-.897-.833-.21 0-.614.375-.897.833M172 33.711c0 .574.787 1.662 1.75 2.417 1.619 1.269 1.64 1.222.283-.628-.807-1.1-1.594-2.187-1.75-2.417-.156-.229-.283.054-.283.628M57.75 36.573c-5.153 3.375-4.715 3.826.749.772 3.907-2.184 4.579-2.306 5.107-.93.334.872 1.08 1.585 1.656 1.585.576 0 .233-.9-.762-2-2.212-2.444-2.132-2.451-6.75.573M377 36c0 .55.477 1 1.059 1s.781-.45.441-1-.816-1-1.059-1-.441.45-.441 1m-227.362 2.5c-.316.825-.139 1.5.393 1.5.533 0 .969-.675.969-1.5s-.177-1.5-.393-1.5c-.216 0-.652.675-.969 1.5M46.786 40.469c-3.842 1.329-7.731 3.472-6.286 3.465.55-.003 2.125-.648 3.5-1.434 1.375-.786 3.711-1.445 5.191-1.465 1.48-.019 2.923-.41 3.206-.868.723-1.17-1.738-1.037-5.611.302m19.888 2.781c.872 2.337 1.62 7.327 1.661 11.088.072 6.393 1.435 6.707 1.595.368C70.024 50.96 66.972 39 65.923 39c-.459 0-.121 1.913.751 4.25m152.293-2.75c.807 1.1 1.539 2.132 1.626 2.293.088.161.464-.5.836-1.469.372-.97.357-1.443-.034-1.052s-1.427.152-2.303-.531c-1.435-1.118-1.447-1.043-.125.759M331 40.941c0 .518.445 1.216.989 1.552.566.35.734-.051.393-.941-.665-1.732-1.382-2.049-1.382-.611m-125 .892c0 .459.655.834 1.456.834.801 0 1.224-.375.941-.834-.283-.458-.938-.833-1.456-.833s-.941.375-.941.833M24.98 45.25c-1.026 2.118-1.002 2.14.417.375.891-1.11 2.16-1.625 3.107-1.262.928.356 1.343.199.989-.374-1.063-1.721-3.382-1.072-4.513 1.261m149.584-.543c-.542 1.425-.428 1.54.56.56.684-.679.991-1.486.683-1.793-.308-.308-.867.247-1.243 1.233m161.738-.386c-.368.594-.089.666.698.179.885-.547 1.068-.419.565.394-.569.921-1.074.929-2.154.032-.812-.673-1.411-.75-1.411-.18 0 .546-1.425.826-3.167.623-1.741-.203-2.873-.076-2.515.282.358.358-.13 1.292-1.084 2.074-.953.783-1.171 1.138-.484.79.961-.487 1.25 1.808 1.25 9.926 0 7.053.368 10.559 1.107 10.559.609 0 .848.675.531 1.5-.316.825-.139 1.5.393 1.5.533 0 .969-.375.969-.833 0-.459.694-.834 1.543-.834.875 0 1.322.578 1.031 1.334-.281.733-.049 1.333.516 1.333.566 0 .707.52.315 1.155-.433.699-.276.883.397.467.611-.377.885-1.275.609-1.994-.276-.719.28-1.942 1.235-2.718 1.106-.897 1.466-.958.991-.167-.52.866-.036 1.185 1.594 1.05 2.774-.23 2.859-.56 3.28-12.746.292-8.458.114-9.637-1.684-11.197-1.106-.959-1.764-2.143-1.463-2.63.301-.488-.127-.887-.952-.887s-1.775.445-2.11.988M31 44.442c0 .718 6.345 4.012 7.25 3.764.413-.113.75.244.75.794s.52 1 1.155 1c.667 0 .415-.818-.598-1.937-.964-1.065-1.45-2.528-1.081-3.25.37-.722.062-.574-.683.329-1.201 1.455-1.666 1.48-4.075.218-1.495-.783-2.718-1.196-2.718-.918M73 45c0 .55.477 1 1.059 1s.781-.45.441-1-.816-1-1.059-1-.441.45-.441 1m273.638.5c.317.825.753 1.5.969 1.5.216 0 .393-.675.393-1.5s-.436-1.5-.969-1.5c-.532 0-.709.675-.393 1.5m28.393 0c0 .55.436 1.675.969 2.5.533.825.969 1.05.969.5s-.436-1.675-.969-2.5c-.533-.825-.969-1.05-.969-.5m-351.92 5.611c-1.455 4.174-.76 4.869.889.889.698-1.685 1.036-3.298.75-3.583-.285-.286-1.023.927-1.639 2.694M82 48.965c0 .53 1.013 1.496 2.25 2.145 2.238 1.175 2.24 1.17.345-.964C82.479 47.762 82 47.544 82 48.965M42 50.69c0 .55.9 1.815 2 2.81 1.1.995 2 1.36 2 .81s-.9-1.815-2-2.81c-1.1-.995-2-1.36-2-.81M87 52c0 .55.477 1 1.059 1s.781-.45.441-1-.816-1-1.059-1-.441.45-.441 1m3 .457c0 .326 1.119 1.018 2.487 1.538 2.164.823 2.362 1.273 1.524 3.475-.529 1.392-.571 2.53-.095 2.53 1.2 0 2.379-5.119 1.389-6.032C94.179 52.928 90 51.739 90 52.457m293.079 2.126c.048 1.165.285 1.402.604.605.289-.722.253-1.585-.079-1.917-.332-.332-.568.258-.525 1.312M20 57.059c0 .582.45.781 1 .441s1-.816 1-1.059S21.55 56 21 56s-1 .477-1 1.059M47 57c0 .55.477 1 1.059 1s.781-.45.441-1-.816-1-1.059-1-.441.45-.441 1m112.564 1.293c.376.986.935 1.541 1.243 1.233.308-.307.001-1.114-.683-1.793-.988-.98-1.102-.865-.56.56M251.272 62c0 2.475.195 3.487.434 2.25.238-1.237.238-3.263 0-4.5-.239-1.237-.434-.225-.434 2.25M48 60c0 .55.477 1 1.059 1s.781-.45.441-1-.816-1-1.059-1-.441.45-.441 1m42.619 5c-3.029 4.576-2.892 4.747 1.607 2.004 2.236-1.363 2.708-1.998 1.489-2-1.475-.003-1.599-.351-.715-2.004 1.818-3.397.405-2.21-2.381 2m-41.138-1.5c.427 1.1.996 3.013 1.264 4.25.269 1.237.862 2.25 1.32 2.25.994 0-.908-6.075-2.349-7.5-.679-.672-.756-.345-.235 1m16.483.664c-1.145 2.233-1.118 2.26.61.61.994-.95 1.533-2.001 1.197-2.336-.335-.335-1.148.442-1.807 1.726m216.115.419c.048 1.165.285 1.402.604.605.289-.722.253-1.585-.079-1.917-.332-.332-.568.258-.525 1.312M16 65.5c0 .825.177 1.5.393 1.5.216 0 .652-.675.969-1.5.316-.825.139-1.5-.393-1.5-.533 0-.969.675-.969 1.5m48 3c0 .825.177 1.5.393 1.5.216 0 .652-.675.969-1.5.316-.825.139-1.5-.393-1.5-.533 0-.969.675-.969 1.5m31 .5c.589 1.1 1.295 2 1.57 2 .275 0 .019-.9-.57-2s-1.295-2-1.57-2c-.275 0-.019.9.57 2m-79.631.789c.268.433-1.766 1.822-4.521 3.086-2.755 1.264-4.829 2.477-4.61 2.696.219.219 2.15-.494 4.292-1.586C12.671 72.893 15.003 72 15.711 72 16.42 72 17 71.325 17 70.5s-.477-1.5-1.059-1.5-.84.355-.572.789m5.285-.039c-.255.412 1.924.75 4.842.75 2.918 0 5.098-.338 4.845-.75-.252-.412-2.431-.75-4.841-.75s-4.591.338-4.846.75M32.5 71c.34.55 1.379.993 2.309.985 1.457-.014 1.484-.15.191-.985-1.958-1.266-3.282-1.266-2.5 0m51.655 2.101c-1.84 1.673-3.153 3.234-2.917 3.47.236.236 2.191-1.127 4.345-3.029 2.155-1.902 3.467-3.464 2.917-3.471-.55-.007-2.505 1.356-4.345 3.03m-32.449-.776c-.304.792-1.937 2.052-3.629 2.801C45.188 76.405 43.797 79 46 79c.55 0 1-.438 1-.974 0-1.969 6.247-4.256 10.184-3.728 3.721.499 7.865-1.582 6.289-3.159-.343-.342-1.043.129-1.557 1.047-.921 1.645-2.807 1.495-8.037-.639-.98-.4-1.839-.092-2.173.778M39 73.924c0 .474.675 1.121 1.5 1.438.825.316 1.5.187 1.5-.286 0-.474-.675-1.121-1.5-1.438-.825-.316-1.5-.187-1.5.286m10.561 3.424C48.152 78.757 47 80.427 47 81.06s1.363-.308 3.029-2.091c3.618-3.873 3.206-5.295-.468-1.621m9.889-.071c5.882 4.893 2.547 14.537-4.662 13.479-1.534-.226-2.788.012-2.788.527 0 1.026 5.328.514 8.5-.818 1.782-.748 1.85-.655.628.848-1.535 1.886-8.1 2.308-11.083.711-1.444-.772-1.932-.564-2.341 1-.284 1.087-.109 1.976.39 1.976.498 0 .906-.427.906-.948 0-.574 1.189-.533 3.018.104 1.659.579 4.1.78 5.422.448 2.703-.678 8.572-6.13 8.538-7.931-.012-.645-.954-.048-2.093 1.327-1.669 2.015-1.931 2.112-1.349.5 2.206-6.114.982-10.172-3.786-12.554-1.62-.809-1.423-.436.7 1.331m3.477.358c1.14 1.449 2.109 3.812 2.152 5.25.048 1.602.305 2.034.662 1.115.321-.825 1.298-2.064 2.171-2.752 1.296-1.023 1.313-1.16.088-.749-.937.315-2.14-.623-3.203-2.497C63.86 76.351 62.589 75 61.974 75c-.616 0-.186 1.186.953 2.635M78.5 77c-.34.55-.141 1 .441 1S80 77.55 80 77s-.198-1-.441-1-.719.45-1.059 1m79.5 0c0 .55.477 1 1.059 1s.781-.45.441-1-.816-1-1.059-1-.441.45-.441 1m-59.93 1.691c-.038 1.205.38 2.469.93 2.809 1.183.731 1.183-.248 0-3-.829-1.928-.862-1.921-.93.191m-26.32-.002c-.963.252-1.75.833-1.75 1.291 0 1.029 3.827.108 4.575-1.101.567-.918.086-.95-2.825-.19M8.939 82.25c1.029 1.787 2.178 5.162 2.554 7.5.376 2.338 1.045 4.25 1.489 4.25.443 0 .362-1.912-.179-4.25C11.692 84.959 8.923 79 7.806 79c-.406 0 .104 1.463 1.133 3.25m35.53-.75c-.258.825-.664 2.133-.901 2.906-.238.773-1.808 1.707-3.489 2.077-1.681.369-3.295 1.057-3.587 1.53-.715 1.157 5.337-.626 7.105-2.093 1.127-.936 1.403-.759 1.403.899 0 1.134.498 2.371 1.107 2.747.771.477.857-.037.282-1.691-.453-1.306-.791-3.612-.75-5.125.081-3.024-.442-3.582-1.17-1.25M47 84.678c0 1.155.885 3.163 1.967 4.461 2.524 3.03 2.534 2.266.033-2.639-1.454-2.851-2-3.349-2-1.822m53.204.277c.671 1.075 1.36 1.814 1.532 1.643.592-.593-.954-3.598-1.851-3.598-.496 0-.353.88.319 1.955M33.5 89c-.34.55-.141 1 .441 1S35 89.55 35 89s-.198-1-.441-1-.719.45-1.059 1m69.226 1.059c.395 1.513-.027 2.207-1.594 2.617-1.173.306-2.132.971-2.132 1.476 0 1.05 4.165-.937 5.157-2.461.774-1.188-.019-3.691-1.17-3.691-.44 0-.557.927-.261 2.059m-73.476.161c-3.095 1.493-2.857 3.014.25 1.598 1.375-.626 2.5-1.517 2.5-1.979 0-.985.118-1.002-2.75.381m35.75.173c0 .216.698.661 1.552.989.89.341 1.291.173.941-.393-.587-.951-2.493-1.406-2.493-.596m74.158.672c-1.289.517-2.821.643-3.405.282-.674-.416-.763-.172-.243.668.599.97.358 1.149-.898.666-.946-.363-1.462-.247-1.149.258.311.505-.34 1.205-1.448 1.556-2.332.74-2.509 1.551-.765 3.507 1.054 1.182.99 1.206-.411.151-1.643-1.236-3.843.176-2.448 1.572.325.325.116 1.164-.466 1.865-.742.895-.742 2.408.004 5.092 1.341 4.83 1.333 6.23-.025 4.318-.82-1.154-.926-.862-.462 1.265.699 3.2 3.535 6.867 4.736 6.125.452-.28.822.393.822 1.494 0 1.102.897 2.631 1.994 3.399 1.096.768 1.731 1.658 1.411 1.978-.32.32.55.458 1.933.306 1.383-.152 3.111.102 3.839.563.998.634 1.016.843.073.855-2.156.026-1.365 2.739 1.509 5.176 1.517 1.286 2.725 3.014 2.685 3.839-.126 2.557.666 3.151 2.395 1.799 1.472-1.151 1.511-1.107.342.387-.999 1.276-1.051 2.188-.215 3.75.752 1.406.786 2.659.104 3.933-.55 1.027-.678 2.224-.285 2.66.393.435.151.467-.538.071-.936-.539-.979-1.232-.169-2.746.596-1.114.864-2.246.594-2.515-.269-.269-.846.557-1.282 1.836-1.124 3.3-1.136 4.16-.079 5.575 1.443 1.931-.403 1.477-2.032-.5-1.277-1.549-1.383-1.559-.924-.083.808 2.597-2.115 3.007-4.348.61-1.104-1.185-2.007-1.779-2.007-1.32 0 .459-1.125-.379-2.5-1.862-1.375-1.484-2.486-3.012-2.468-3.397.017-.384.64.105 1.384 1.085 1.216 1.603 1.325 1.45 1.078-1.5-.413-4.929-.419-4.947-1.494-4.283-.55.34-1.007.029-1.015-.691-.011-.951-.281-.899-.985.191-.714 1.105-.973 1.153-.985.18-.032-2.811-4.501-.803-4.842 2.176-.211 1.849.053 2.622.75 2.191.643-.397 1.077.209 1.077 1.501 0 1.547.444 1.996 1.552 1.57.89-.341 1.291-.173.941.393-.336.544-1.329.989-2.207.989-1.457 0-1.458.153-.012 1.75 1.55 1.713 1.726 2.153 1.726 4.309 0 .582.399.812.887.511.487-.301 1.442.122 2.122.941 1.588 1.914 3.096 1.927 2.365.021-.31-.808-.859-1.412-1.219-1.342-1.506.293-4.095-1.477-3.521-2.407.342-.553.002-1.399-.756-1.879-1.034-.655-1.06-.877-.103-.889.701-.008 1.703 1.113 2.228 2.492.524 1.379 1.3 2.392 1.725 2.25.425-.141 1.826.797 3.114 2.085 1.436 1.436 3.082 2.15 4.252 1.844 1.2-.314 1.662-.1 1.243.577-.444.719-.029.812 1.249.278 1.053-.44 2.597-.875 3.432-.967 2.266-.252 4.086-1.597 3.482-2.574-.293-.474-.106-1.125.415-1.447.521-.322 1.272-.059 1.67.585.483.781.288.901-.585.362-.92-.569-1.069-.421-.502.497.632 1.023 1.092.916 2.123-.493.723-.989 1.047-2.233.719-2.763-.328-.531.023-1.347.78-1.815 1.607-.994 1.451-16.194-.173-16.761-.528-.185-.705-.747-.394-1.25.311-.503.088-.915-.494-.915s-1.059-.659-1.059-1.465c0-1.957-3.405-3.687-5.678-2.884-1.49.526-1.594.398-.572-.704 1.492-1.608 1.667-3.323.25-2.447-.55.34-1 .141-1-.441s-.542-.946-1.205-.809c-.662.138-1.281-.312-1.375-1-.093-.687-.226-1.7-.295-2.25-.069-.55-.687-1.007-1.375-1.015-2.465-.031-4.156-1.902-4.219-4.669-.044-1.96-.558-2.779-1.69-2.695-.894.067-1.507-.383-1.361-1 .146-.617.604-2.584 1.018-4.371.413-1.787 1.146-3.25 1.627-3.25 1.122 0 .683-2.273-.625-3.238-.55-.405.939-.474 3.31-.152 7.288.989 7.699 1.119 7.415 2.347-.151.655.119.949.599.652.48-.297.913.856.962 2.562.048 1.707.509 3.524 1.024 4.039 1.414 1.414 7.467.502 8.026-1.21.419-1.286.252-1.304-1.173-.128-1.431 1.182-1.663 1.147-1.663-.25 0-.892.499-1.622 1.108-1.622 1.513 0 .267-4.665-2.155-8.066-2.422-3.401-7.838-6.01-11.012-5.304-1.927.429-2.125.318-.941-.528 1.82-1.3.357-1.319-2.842-.037M339 91.274c0 .517-.642.694-1.427.392-.785-.301-1.973.111-2.641.916-1.011 1.218-.897 1.349.677.782 1.04-.376 1.553-.311 1.141.144-.413.454-1.763.908-3 1.008-1.589.129-2.228.799-2.176 2.283.041 1.156-.297 1.872-.75 1.592S330 98.385 330 99s-.449.841-.997.502c-.659-.408-.668.25-.025 1.941.592 1.555.607 2.557.039 2.557-1.156 0-.8 36.465.391 40 .817 2.426.795 2.441-.751.5-.876-1.1-1.608-1.678-1.625-1.285-.018.394 1.378 2.321 3.101 4.284 1.723 1.962 2.848 3.853 2.5 4.201-.348.348-.633.124-.633-.498s-.932-1.63-2.071-2.24c-2.023-1.083-2.032-1.049-.385 1.465.927 1.415 1.34 2.573.916 2.573-.423 0 .035.889 1.019 1.976.983 1.087 2.178 1.736 2.655 1.441.476-.294.866-.098.866.436s1.125.847 2.5.696c1.375-.15 2.5.016 2.5.37 0 .355 1.238.743 2.75.862l2.75.217-3-1.561c-1.65-.859-3.45-2.066-4-2.683-.55-.616.132-.422 1.515.431 5.499 3.395 14.391 2.227 15.792-2.074.272-.834.006-1.113-.666-.698-.712.44-.902.127-.523-.861.328-.854 1.11-1.559 1.739-1.567.629-.009.468-.452-.357-.985-1.244-.804-1.159-.975.5-1 1.659-.025 1.744-.196.5-1-1-.646-1.083-.974-.25-.985 2.237-.027 1.753-41.623-.5-42.935-1.667-.971-1.667-1.021 0-1.05 1.02-.017 1.717-.76 1.671-1.78-.051-1.129-.264-1.288-.601-.448-.321.802-1.158.032-2.177-2-.991-1.978-2.349-3.247-3.388-3.165-.953.075-1.456-.312-1.116-.862.851-1.377-1.758-2.848-3.88-2.188-.958.298-2.3.197-2.982-.225-1.816-1.122-4.777-1.177-4.777-.088m43.348-.028c-.267.433-.982.48-1.587.106-.726-.448-.865-.065-.408 1.125.611 1.593.494 1.642-.994.414-1.541-1.271-1.58-1.192-.457.915.676 1.269 1.874 2.555 2.663 2.857.789.303 1.435 1.031 1.435 1.618 0 .587-1.012.193-2.25-.875-3.678-3.176-5.862-2.474-7.283 2.342-.814 2.755-.88 4.007-.189 3.58.669-.414.814-.041.392 1.008l-1.34 3.328c-.371.921-.259 1.41.25 1.096.506-.312.989.583 1.074 1.989.111 1.844-.094 2.166-.735 1.154-.727-1.149-.891-1.105-.904.24-.008.904.707 1.92 1.589 2.258.99.381 1.364 1.24.977 2.249-.519 1.352-.37 1.42.868.392 1.522-1.263 7.359 2.135 7.496 4.363.03.498-.911.048-2.091-1-1.552-1.377-2.268-1.557-2.586-.649-.241.691-.963.996-1.603.678-.641-.318.142.539 1.74 1.905 2.293 1.96 3.269 2.257 4.625 1.41 1.686-1.053 2.463-5.749.952-5.749-.422 0-1.039-.787-1.369-1.75-.331-.963.746-.192 2.393 1.712 2.19 2.533 2.994 2.994 2.994 1.719 0-.959-.677-2.004-1.505-2.321-3.885-1.491-6.385-13.899-3.402-16.882 1.696-1.696 6.296-2.916 5.375-1.426-.869 1.405 2.914 1.15 4.479-.302 1.086-1.008 1.197-.987.572.112-.456.801-.208 1.766.603 2.344 1.067.761.983.856-.372.42-1.86-.599-2.433.834-.75 1.874.55.34 1 1.716 1 3.059 0 2.119.458 2.441 3.469 2.441 2.769 0 3.344-.323 2.854-1.601-.338-.88.014-2.005.781-2.5.883-.569 1.029-1.174.396-1.649-.55-.412-1.059-1.875-1.131-3.25-.205-3.904-.304-4.158-1.369-3.5-.55.34-1-.057-1-.882 0-2.266-1.653-2.822-3.348-1.127-1.979 1.979-3.265 1.953-1.617-.033.91-1.096.97-1.853.21-2.613-1.257-1.257-10.187-1.747-10.897-.599m-211.024.478c-2.796.345-3.133.714-2.819 3.084.197 1.481.388 3.179.426 3.775.038.596.724 1.084 1.525 1.084.801 0 1.224-.375.941-.834-.794-1.285 1.039-.985 2.55.417.81.752 1.091.794.706.106-.412-.736.247-1.092 1.853-1 1.455.084 2.517.768 2.551 1.644.032.825.008 13.93-.053 29.122-.097 24.121.086 27.699 1.443 28.219.878.337 1.56.067 1.568-.622.011-.836.291-.783.893.166.573.905 1.76 1.164 3.423.747l2.545-.639.042-28.24c.028-18.378.401-28.359 1.068-28.582.565-.188.737-.81.383-1.383-.432-.699-.089-.731 1.046-.095 2.109 1.18 7.302.491 7.886-1.047.24-.63.06-2.159-.4-3.396-.794-2.136-1.364-2.25-11.287-2.25-5.748 0-11.05-.15-11.782-.334-.733-.184-2.761-.158-4.508.058m42.214.624c-2.326 1.701-1.259 3.598 1.713 3.047 1.654-.307 1.522-.128-.501.677-1.512.602-2.757 1.62-2.765 2.261-.519 41.744-.119 50.486 2.242 49.027.715-.442.785-.193.206.735-1.415 2.268-1.309 3.417.538 5.867 1.313 1.74 1.94 1.992 2.54 1.02.558-.903.404-1.048-.511-.482-.873.539-1.068.419-.585-.362 1.046-1.692 2.614-.377 1.868 1.568-.474 1.234-.215 1.482 1.043.999.921-.353 1.674-.236 1.674.26 0 .495 1.348.863 2.996.816 2.327-.066 2.757-.373 1.927-1.374-.588-.708-1.824-1.056-2.746-.772-1.296.399-1.253.245.193-.676 1.371-.874 1.542-1.395.643-1.951-.874-.54-.909-.954-.12-1.442.609-.376 1.107-.222 1.107.344 0 .565.787.756 1.75.424 1.502-.518 1.481-.393-.151.879-1.942 1.513-.689 3.579 1.39 2.294.543-.336.758-.011.477.721-.334.871.382 1.406 2.066 1.545 1.741.144 2.344-.164 1.859-.95-.482-.779-.17-.952.945-.524.915.351 1.664.176 1.664-.389 0-.566.39-.787.866-.493 1.175.727 4.057-2.594 4.8-5.53 1.121-4.436 1.604-52.172.521-51.503-1.111.687-1.052-1.21.094-3.044 1.012-1.618-.076-4.007-1.824-4.007-1.771 0-1.86.864-.257 2.467.854.854.873 1.2.067 1.2-.623 0-1.418-.9-1.767-2-.716-2.256-2.064-2.626-2.729-.75-.244.688-.405 12.569-.357 26.403.047 13.835-.252 24.946-.664 24.691-.412-.254-.75.179-.75.962 0 .783-.879 2.541-1.953 3.907-1.542 1.961-1.7 2.766-.75 3.836.984 1.108.925 1.147-.322.217-.839-.625-2.639-1.29-4-1.477-3.679-.505-5.209-1.787-4.655-3.903.272-1.043.07-1.627-.453-1.304-.57.353-.666-.535-.24-2.23.388-1.549.671-3.274.628-3.834-.043-.56-.142-10.584-.219-22.275-.141-21.24-.143-21.259-2.634-23.75-2.929-2.929-2.547-2.839-4.864-1.145M219 92c0 .55.477 1 1.059 1s.781-.45.441-1-.816-1-1.059-1-.441.45-.441 1m38.987-.75c-.238 4.672-.383 65.443-.154 64.754.184-.552.732-1.004 1.219-1.004.487 0 .663.578.392 1.285-.373.972 1.212 1.276 6.531 1.25 3.981-.02 7.03-.468 7.039-1.035.009-.55.453-.325.986.5.727 1.125.973 1.166.985.167.008-.734.578-1.13 1.265-.881.688.249 2.115-.276 3.172-1.166 1.057-.891 1.612-1.089 1.234-.439-.379.649-.27 1.44.242 1.756.512.317 1.384-.665 1.938-2.181.793-2.173 1.026-2.333 1.1-.756.076 1.613.273 1.719 1.013.548.506-.799.729-1.761.496-2.137-.233-.376.247-1.24 1.066-1.92.819-.68 1.482-1.743 1.474-2.363-.009-.621-.452-.453-.985.372-.533.825-.976 1.027-.985.45-.008-.578.479-1.544 1.083-2.148 1.084-1.084 1.463-39.074.401-40.136-.265-.265.077-1.172.76-2.016.772-.954.811-1.277.105-.853-.656.393-1.356-.16-1.657-1.308-.286-1.094-.08-1.989.458-1.989s.274-.704-.586-1.564c-.883-.883-2.111-1.235-2.821-.808-.973.585-.997.429-.106-.686.918-1.148.612-1.84-1.5-3.395-2.064-1.521-2.348-1.576-1.28-.25 1.976 2.452-.461 2.205-2.573-.261-1.256-1.466-2.013-1.689-2.99-.877-.73.605-1.309.666-1.309.137 0-.522-1.238-.82-2.75-.661-8.441.887-13.122.966-12.657.215.289-.468.273-.85-.034-.85-.307 0-.565.112-.572.25m45.434.878c-.238.385.132.929.823 1.208.691.278.806.541.256.584-1.523.119-.718 62.321.819 63.299.953.606 3.421.555 6.553-.137.205-.045-.245-.843-1-1.774-.867-1.07-.924-1.423-.153-.96 1.576.946 2.346-54.832.781-56.546-.703-.77-.578-.854.42-.285 1.102.63 1.245.383.636-1.103-.43-1.053-.995-2.647-1.255-3.544-.477-1.648-6.943-2.258-7.88-.742M74.5 95c.34.55.816 1 1.059 1s.441-.45.441-1-.477-1-1.059-1-.781.45-.441 1m21 0c-1.63.701-1.688.872-.309.93.93.038 1.969-.38 2.309-.93.711-1.15.676-1.15-2 0m164.5.059c0 .582.45.781 1 .441s1-.816 1-1.059-.45-.441-1-.441-1 .477-1 1.059m81.733.065c.679.684 1.486.991 1.793.683.308-.308-.247-.867-1.233-1.243-1.425-.542-1.54-.428-.56.56m47.08-.441c.721.289 1.584.253 1.916-.079.332-.332-.258-.568-1.312-.525-1.165.048-1.402.285-.604.604M14.046 97.086c.614 1.147 1.315 1.886 1.559 1.643.699-.7-.719-3.729-1.747-3.729-.511 0-.426.938.188 2.086m6.927.951c-1.627 2.286-2.665 2.878-4.193 2.393-1.225-.389-1.789-.253-1.421.342.335.543 1.561 1.235 2.724 1.54 1.163.304 1.872.31 1.575.013-.297-.297.559-1.724 1.901-3.172C23.8 96.736 24.64 95 23.568 95c-.237 0-1.405 1.367-2.595 3.037m257.76-1.913c.679.684 1.486.991 1.793.683.308-.308-.247-.867-1.233-1.243-1.425-.542-1.54-.428-.56.56M338 96c1.958 1.266 3.282 1.266 2.5 0-.34-.55-1.379-.993-2.309-.985-1.457.014-1.484.15-.191.985M46 97.5c-.718.865-.815 1.5-.229 1.5.558 0 1.274-.675 1.591-1.5.316-.825.419-1.5.229-1.5-.19 0-.906.675-1.591 1.5m33.655-.25c.254.412 2.66.75 5.345.75 2.685 0 5.091-.338 5.345-.75.255-.412-2.15-.75-5.345-.75s-5.6.338-5.345.75m13.078-.126c.679.684 1.486.991 1.793.683.308-.308-.247-.867-1.233-1.243-1.425-.542-1.54-.428-.56.56m248.921 1.335c-.51 1.329-1.015 1.418-2.76.484-1.27-.679-1.879-.728-1.502-.118.348.563-.161 1.23-1.13 1.483-1.665.435-1.665.466-.012.576.962.064 1.75.614 1.75 1.223 0 .616-.729.827-1.641.477-1.373-.527-1.435-.38-.378.893 1.489 1.795-.033 2.071-1.781.323-.854-.854-1.2-.873-1.2-.067 0 .623.844 1.4 1.875 1.727 2.04.648 2.699 5.529.75 5.555-.656.009-.556.376.238.879 1.092.692 1.287 4.381.979 18.508-.211 9.704-.069 16.845.317 15.871.531-1.343.717-1.092.771 1.036.04 1.604.499 2.544 1.07 2.191.55-.34 1-.115 1 .5s.526.793 1.17.395c.809-.5.962-.132.497 1.191-.625 1.781-.578 1.793.679.18.744-.954 1.645-1.442 2.003-1.084.358.358.651.14.651-.484s.675-.876 1.5-.56c1.102.423 1.5-.131 1.5-2.09 0-1.466.337-2.458.75-2.203.413.254.681-8.382.597-19.191-.109-13.903.184-19.869 1-20.389.851-.542.834-.738-.066-.75-.67-.008-.96-.687-.645-1.509.316-.822.976-1.246 1.469-.941.492.304.895-.218.895-1.161 0-1.587-.149-1.58-2 .096-2.452 2.219-2.638.927-.277-1.921.948-1.144 1.116-1.549.373-.902-.903.787-2.136.878-3.723.275-1.305-.496-2.38-.576-2.388-.177-.009.399-.396.125-.861-.609-.678-1.068-.97-1.01-1.47.293M58 99c0 .55.477 1 1.059 1s.781-.45.441-1-.816-1-1.059-1-.441.45-.441 1m209.289.909c-.781 1.25-1.189 8.978-1.248 23.608-.049 11.963-.319 22.124-.601 22.58-1.053 1.704 3.048 4.499 5.596 3.814 1.355-.364 3.416-.459 4.578-.212 3.21.683 3.55-1.317 3.944-23.199.353-19.646-.507-27.268-2.91-25.783-.596.369-.713-.105-.295-1.194.586-1.527.457-1.61-.83-.542-1.092.907-1.523.937-1.523.106 0-.815-.545-.865-1.847-.169-1.136.608-2.204.631-2.775.06-.571-.571-1.375-.213-2.089.931M93.15 102c-.575 1.65-.718 3-.317 3 .401 0 1.238-1.35 1.861-3s.765-3 .317-3-1.286 1.35-1.861 3m59.85-2c0 .55.477 1 1.059 1s.781-.45.441-1-.816-1-1.059-1-.441.45-.441 1m227.079.583c.048 1.165.285 1.402.604.605.289-.722.253-1.585-.079-1.917-.332-.332-.568.258-.525 1.312M44 101.059c0 .582.45.781 1 .441s1-.816 1-1.059-.45-.441-1-.441-1 .477-1 1.059m86.564.648c-.542 1.425-.428 1.54.56.56.684-.679.991-1.486.683-1.793-.308-.308-.867.247-1.243 1.233M379.158 105c0 1.375.227 1.938.504 1.25.278-.687.278-1.812 0-2.5-.277-.687-.504-.125-.504 1.25m-362.52.5c-.316.825-.187 1.5.286 1.5.474 0 1.121-.675 1.438-1.5.316-.825.187-1.5-.286-1.5-.474 0-1.121.675-1.438 1.5M60 105c0 .55.477 1 1.059 1s.781-.45.441-1-.816-1-1.059-1-.441.45-.441 1m28.862 5.751c-1.452 2.612-2.957 6.242-3.345 8.067-.812 3.818-2.481 4.807-5.439 3.224-1.344-.72-2.078-.754-2.078-.096 0 1.239 4.476 2.469 6.358 1.747.749-.287 1.902-2.667 2.561-5.287.66-2.62 1.999-5.921 2.977-7.335 2.792-4.04 3.282-5.071 2.413-5.07-.445.001-1.996 2.138-3.447 4.75m307.951-3.068c.721.289 1.584.253 1.916-.079.332-.332-.258-.568-1.312-.525-1.165.048-1.402.285-.604.604m-381.439 1.784c-.309.807-.37 2.044-.134 2.75s.666.046.956-1.467c.566-2.953.099-3.682-.822-1.283m247.19.826c.376.986.935 1.541 1.243 1.233.308-.307.001-1.114-.683-1.793-.988-.98-1.102-.865-.56.56M41.195 112.5c.02 1.65.244 2.204.498 1.231.254-.973.237-2.323-.037-3-.274-.677-.481.119-.461 1.769m335.369 1.207c-.542 1.425-.428 1.54.56.56.684-.679.991-1.486.683-1.793-.308-.308-.867.247-1.243 1.233m-359.16.138c.314.508 1.941 1.125 3.615 1.371 3.659.537 2.645-.683-1.353-1.627-1.653-.39-2.595-.284-2.262.256m51.508 2.89c3.85 3.36 3.717 5.818-.369 6.844-1.399.351-2.543 1.016-2.543 1.478 0 1.091 7.273-1.93 8.235-3.419 1.137-1.761.936-2.23-1.485-3.462-1.237-.63-3.375-1.882-4.75-2.782-1.375-.9-.965-.296.912 1.341M25 115.991c0 .555.418 1.009.929 1.009.51 0 1.639.711 2.509 1.58.869.87 2.008 1.432 2.531 1.25.523-.181-.606-1.347-2.509-2.589-1.903-1.243-3.46-1.805-3.46-1.25m16.486 2.654c.343 1.263-.033 2.76-.915 3.642-1.33 1.329-1.222 1.481.965 1.355 2.341-.135 3.631-1.642 1.405-1.642-.582 0-.783-.446-.446-.992s.117-1.783-.489-2.75c-.972-1.551-1.033-1.506-.52.387M376 118c0 .55.45 1 1 1s1-.45 1-1-.45-1-1-1-1 .45-1 1m-235 2c0 .55.477 1 1.059 1s.781-.45.441-1-.816-1-1.059-1-.441.45-.441 1m-108 1.094c0 .498.9.906 2 .906s2-.173 2-.383c0-.211-.9-.619-2-.907-1.1-.287-2-.115-2 .384m352.481-.192c.538.915.189 1.866-1.005 2.739-1.007.736-1.518 1.65-1.136 2.032.381.382 1.226.161 1.877-.49s1.656-1.176 2.233-1.168c.577.009.388.434-.421.946-.809.512-1.157 1.244-.774 1.627s1.495.07 2.471-.695c1.618-1.271 1.652-1.237.383.38-.856 1.09-2.106 1.545-3.25 1.182-1.023-.324-1.859-.218-1.859.237 0 .968 4.181 3.821 5.189 3.541.378-.106.519.689.311 1.766-.207 1.078.045 2.22.561 2.539.517.319.939.077.939-.538s.379-.884.842-.598c.462.286.743 2 .623 3.809-.12 1.809.231 3.852.781 4.539.701.877.59 1.259-.374 1.28-.93.021-.809.359.378 1.05.962.561 1.705 2.01 1.65 3.22-.092 2.036-.153 2.013-.812-.3l-.712-2.5-.679 2.64c-.374 1.452-1.446 2.933-2.382 3.293-1.601.614-1.601.541-.009-1.219 2.631-2.907 1.994-3.397-.913-.702-1.434 1.329-2.897 2.379-3.25 2.334-2.129-.274-3.175.304-2.542 1.404.396.688.385.95-.024.583-.409-.366-.63-.816-.491-1 .138-.183-.299-1.458-.972-2.833-1.152-2.352-1.132-2.385.331-.559.855 1.068 1.555 1.589 1.555 1.158 0-1.75-3.825-5.626-4.312-4.369-.27.698-.423-.755-.34-3.23l.152-4.5H376c-3.418 0-3.506.1-3.74 4.285-.176 3.134.182 4.447 1.333 4.889 1.164.447 1.257.801.356 1.358-.864.534-.597 1.086.916 1.896 1.174.628 2.135 1.732 2.135 2.452 0 2.193 3.533 4.736 5.519 3.974 1.216-.466 1.58-.323 1.111.436-.648 1.049.624 1.102 8.242.346 1.072-.106 1.114-.448.193-1.557-.974-1.174-.777-1.333 1.128-.914 1.636.361 1.919.233.973-.439-1.079-.767-1.021-1.067.302-1.575.9-.346 1.38-.214 1.068.291-1.17 1.892 1.04 1.725 2.964-.224 1.1-1.114 1.534-1.764.964-1.445-.569.319-1.035-.262-1.035-1.291 0-1.517.274-1.645 1.449-.677 1.243 1.025 1.278.874.251-1.055-.667-1.251-.777-2.25-.248-2.25.524 0 1.141.563 1.372 1.25.231.688.317-1.9.191-5.75-.157-4.777-.605-6.913-1.411-6.725-.65.151-.895-.19-.544-.758.351-.568-.029-1.7-.845-2.516-1.13-1.13-1.612-1.187-2.024-.242-.297.683-.28-.014.038-1.548.424-2.043.212-2.712-.79-2.5-.794.168-1.306-.465-1.221-1.51.081-.989-.366-1.628-.992-1.419-.627.209-1.593-.521-2.147-1.622-.554-1.101-1.633-2.208-2.397-2.461-.954-.315-1.135-.026-.578.921.446.759-.244.48-1.533-.62s-1.973-1.369-1.519-.598m-7.481.491c0 .216.698.661 1.552.989.89.341 1.291.173.941-.393-.587-.951-2.493-1.406-2.493-.596M44.07 127.75c1.637 4.412 6.93 6.719 6.93 3.021 0-.615-.557-.553-1.41.154-1.492 1.239-4.59-1.898-4.59-4.648 0-.702-.439-1.277-.975-1.277-.623 0-.607.994.045 2.75M58.5 127c-.34.55.282 1 1.382 1 1.1 0 2.278-.45 2.618-1 .34-.55-.282-1-1.382-1-1.1 0-2.278.45-2.618 1m-3.471.961c-.809.512-1.211 1.191-.893 1.509.319.318 1.148-.108 1.844-.946 1.443-1.738 1.166-1.902-.951-.563m92.89 5.442c.894 1.077.865 1.523-.127 1.921-.822.329-.655.547.458.597 1.941.088 2.016-.065 1.143-2.339-.334-.87-1.064-1.582-1.622-1.582-.617 0-.559.551.148 1.403m3.081.538c0 .518.375 1.173.833 1.456.459.283.834-.14.834-.941 0-.801-.375-1.456-.834-1.456-.458 0-.833.423-.833.941M215 139c0 .55.45 1 1 1s1-.45 1-1-.45-1-1-1-1 .45-1 1m-57.842 2c0 1.375.227 1.938.504 1.25.278-.687.278-1.812 0-2.5-.277-.687-.504-.125-.504 1.25m237.288-.913c-.369.598-.144 1.611.5 2.25.895.887.999.707.44-.761-.589-1.544-.393-1.793.992-1.261 1.027.394 1.478.262 1.115-.326-.805-1.302-2.209-1.257-3.047.098m-161.315 7.075c-1.645 2.634-1.097 2.993 1.083.708.942-.988 1.37-2.009.95-2.269-.42-.259-1.335.443-2.033 1.561m29.507.338c-.316.825-.139 1.5.393 1.5.533 0 .969-.675.969-1.5s-.177-1.5-.393-1.5c-.216 0-.652.675-.969 1.5m-26.427 1.101c-.71.769-.849 1.399-.309 1.399 1.038 0 2.541-1.902 1.948-2.466-.192-.183-.93.297-1.639 1.067m28.296 1.388c-.35.566.051.734.941.393 1.732-.665 2.049-1.382.611-1.382-.518 0-1.216.445-1.552.989M273.5 151c.34.55 1.379.993 2.309.985 1.457-.014 1.484-.15.191-.985-1.958-1.266-3.282-1.266-2.5 0m60.829 2.584c-.493 1.286-.784 1.333-1.544.25-.769-1.095-.874-1.096-.586-.009.193.729.79 1.336 1.326 1.349.536.013 1.875.454 2.975.98 1.85.884 1.868.85.25-.459-1.943-1.572-2.411-3.222-.595-2.1.715.443.883.275.44-.44-.965-1.563-1.543-1.453-2.266.429m40.214-.653c-.317.512-.118 1.213.441 1.559.559.345 1.016-.074 1.016-.931 0-1.757-.6-2.015-1.457-.628m-235.063.883c.318.317 1.958.682 3.645.811 1.687.128 2.821-.013 2.519-.314-.301-.301-1.941-.666-3.644-.811-1.703-.145-2.837-.004-2.52.314M350 155c-.901.582-1.025.975-.309.985.655.008 1.469-.435 1.809-.985.767-1.242.421-1.242-1.5 0m28.083-.717c.23.156 1.317.943 2.417 1.75 1.85 1.357 1.897 1.336.628-.283-.755-.963-1.843-1.75-2.417-1.75-.574 0-.857.127-.628.283m6.083.593c-1.098.696-1.083.942.083 1.389.809.311 1.418-.059 1.418-.86 0-.773-.038-1.398-.084-1.39-.045.009-.683.396-1.417.861M388 157c-.901.582-1.025.975-.309.985.655.008 1.469-.435 1.809-.985.767-1.242.421-1.242-1.5 0M7 174.5c0 .825.787 1.532 1.75 1.57 1.496.06 1.46.195-.25.927-1.119.48 85.18.853 196 .848 108.9-.004 197.485-.218 196.856-.475-.629-.256-.938-1.251-.688-2.21.433-1.654-8.227-1.754-166.147-1.924-131.02-.142-166.448.081-165.871 1.042.543.904.359.951-.708.18-2.219-1.604-12.746-1.866-14.557-.363-1.22 1.013-1.956 1.029-3.482.076-2.657-1.659-27.198-1.505-26.262.165.419.747.17.716-.694-.086C20.878 172.33 7 172.548 7 174.5m43.813-.817c.721.289 1.584.253 1.916-.079.332-.332-.258-.568-1.312-.525-1.165.048-1.402.285-.604.604m5.451 3.035c1.52.229 3.77.223 5-.014 1.23-.237-.014-.425-2.764-.418-2.75.008-3.756.202-2.236.432m239.486-.012c1.238.238 3.262.238 4.5 0 1.238-.239.225-.434-2.25-.434s-3.488.195-2.25.434m32 0c1.238.238 3.262.238 4.5 0 1.238-.239.225-.434-2.25-.434s-3.488.195-2.25.434m20.063-.023c.721.289 1.584.253 1.916-.079.332-.332-.258-.568-1.312-.525-1.165.048-1.402.285-.604.604" fill-rule="evenodd"/>
</svg>