<svg xmlns="http://www.w3.org/2000/svg" version="1.1" xmlns:xlink="http://www.w3.org/1999/xlink" width="512" height="512" x="0" y="0" viewBox="0 0 32 32" style="enable-background:new 0 0 512 512" xml:space="preserve" class=""><g><path d="M22.5 16.25c-2.69 0-7.25.58-7.25 2.75v8c0 2.17 4.56 2.75 7.25 2.75s7.25-.58 7.25-2.75v-8c0-2.17-4.56-2.75-7.25-2.75zm-5.75 6.73v-2.2c1.57.73 4.03.98 5.75.98s4.19-.25 5.75-.99v2.21c-.15.37-2.07 1.28-5.75 1.28s-5.58-.9-5.75-1.27zm5.75-5.23c3.65 0 5.56.9 5.74 1.24-.19.38-2.11 1.26-5.74 1.26s-5.49-.87-5.73-1.25c.22-.38 2.13-1.25 5.73-1.25zm0 10.5c-3.69 0-5.61-.92-5.75-1.25v-2.23c1.57.74 4.03.98 5.75.98s4.19-.24 5.75-.98v2.2c-.14.36-2.07 1.28-5.75 1.28zm-13-26c-2.69 0-7.25.58-7.25 2.75v8c0 2.17 4.56 2.75 7.25 2.75s7.25-.58 7.25-2.75V5c0-2.17-4.56-2.75-7.25-2.75zM3.75 8.98v-2.2c1.57.73 4.03.98 5.75.98s4.19-.25 5.75-.99v2.21c-.15.37-2.07 1.28-5.75 1.28s-5.58-.9-5.75-1.27zM9.5 3.75c3.65 0 5.56.9 5.74 1.24-.19.38-2.11 1.26-5.74 1.26S4.01 5.38 3.77 5c.22-.38 2.13-1.25 5.73-1.25zm0 10.5c-3.69 0-5.61-.92-5.75-1.25v-2.23c1.57.74 4.03.98 5.75.98s4.19-.24 5.75-.98v2.2c-.14.36-2.07 1.28-5.75 1.28zm13.25.5c-.41 0-.75-.34-.75-.75V8.25C22 7.56 21.44 7 20.75 7H19c-.41 0-.75-.34-.75-.75s.34-.75.75-.75h1.75c1.52 0 2.75 1.23 2.75 2.75V14c0 .41-.34.75-.75.75zM13 26.5h-1.75c-1.52 0-2.75-1.23-2.75-2.75V18c0-.41.34-.75.75-.75s.75.34.75.75v5.75c0 .69.56 1.25 1.25 1.25H13c.41 0 .75.34.75.75s-.34.75-.75.75z" fill="#eda708" opacity="1" data-original="#000000" class=""></path></g></svg>