<svg xmlns="http://www.w3.org/2000/svg" version="1.1" xmlns:xlink="http://www.w3.org/1999/xlink" width="512" height="512" x="0" y="0" viewBox="0 0 511 511.984" style="enable-background:new 0 0 512 512" xml:space="preserve" class=""><g><path d="M133.336 149.336a8.537 8.537 0 0 0-3.672 11.238 8.535 8.535 0 0 0 11.078 4.121 107.498 107.498 0 0 1 32.871-9.82 8.534 8.534 0 0 0-2.191-16.922 124.543 124.543 0 0 0-38.086 11.383zM60.648 366.742a8.532 8.532 0 0 0-8.53 8.531v22.305a86.426 86.426 0 0 0 6.398 32.61 8.534 8.534 0 1 0 15.812-6.41 70.312 70.312 0 0 1-5.121-26.712v-21.793a8.539 8.539 0 0 0-2.508-6.043 8.522 8.522 0 0 0-6.05-2.488zM99.281 195.324a119.55 119.55 0 0 1 16.63-14.687 8.533 8.533 0 0 0 3.464-7.797 8.532 8.532 0 0 0-13.508-6 137.527 137.527 0 0 0-18.976 16.742 127.104 127.104 0 0 0-27.102 42.555 117.733 117.733 0 0 0-8.098 43.066v71.879c0 4.711 3.82 8.531 8.532 8.531a8.533 8.533 0 0 0 8.535-8.531v-71.879a101.084 101.084 0 0 1 6.953-36.965 110.249 110.249 0 0 1 23.57-36.914zM207.262 138.242a8.534 8.534 0 0 0-2.5 16.88 108.598 108.598 0 0 1 42.664 15.94c3.98 2.528 9.254 1.356 11.781-2.625a8.535 8.535 0 0 0-2.625-11.78 125.654 125.654 0 0 0-49.32-18.415zM189.297 211.313a8.352 8.352 0 0 0-3.7-5.293 8.353 8.353 0 0 0-6.367-1.07l-.921.136a73.509 73.509 0 0 0-42.387 22.082 61.197 61.197 0 0 0-15.742 37.156 30.513 30.513 0 0 0-.223 4.266v40.523c0 16.106 0 35.559.094 56.09a99.38 99.38 0 0 0 39.465 78.86l5.64 4.359c68.848 53.195 69.028 53.308 69.703 53.758 3.875 2.453 9 1.379 11.57-2.422 2.602-3.813 1.704-9.004-2.03-11.715-1.758-1.297-34.32-26.453-68.797-53.113l-5.649-4.36a82.702 82.702 0 0 1-32.836-65.902c-.094-20.063-.094-39.492-.094-55.57v-40.524c-.027-.66-.007-1.324.067-1.98.05-.281.086-.567.105-.856a44.35 44.35 0 0 1 11.493-27.226 57.077 57.077 0 0 1 32.53-16.64c.333 0 1.22-.18 1.544-.259a8.71 8.71 0 0 0 6.535-10.3zm0 0" fill="#eda708" opacity="1" data-original="#000000" class=""></path><path d="M162.621 330.414a8.532 8.532 0 0 0-8.531 8.531v10.149a101.808 101.808 0 0 0 38.031 79.36 15790.03 15790.03 0 0 0 43.121 34.745c.266.27.551.516.852.746l8.875 7.125c7.238 5.817 7.238 5.817 8.86 6.356a8.531 8.531 0 0 0 7.371-15.238c-.766-.583-2.673-2.118-5.54-4.422l-8.105-6.504a7.735 7.735 0 0 0-.793-.723 35739.509 35739.509 0 0 1-43.88-35.348 84.83 84.83 0 0 1-31.726-66.097v-10.149c0-4.71-3.82-8.53-8.535-8.53zM69.95 45.441a8.468 8.468 0 0 0 3.925-.953 244.209 244.209 0 0 1 165.223-21.64c4.601 1.03 9.168-1.86 10.199-6.461a8.534 8.534 0 0 0-6.461-10.196A261.257 261.257 0 0 0 66.016 29.34a8.535 8.535 0 0 0 3.933 16.101zM308.988 30.723a257.674 257.674 0 0 0-32.87-14.813 8.534 8.534 0 0 0-5.89 16.016 240.74 240.74 0 0 1 30.721 13.781 8.371 8.371 0 0 0 4.035 1.023 8.534 8.534 0 0 0 8.168-6.46 8.542 8.542 0 0 0-4.164-9.547zm0 0" fill="#eda708" opacity="1" data-original="#000000" class=""></path><path d="M27.727 121.254c2.355 0 4.609-.973 6.222-2.688a210.27 210.27 0 0 1 154.633-67.312 206.566 206.566 0 0 1 55.39 7.469 8.534 8.534 0 0 0 10.508-5.938c1.262-4.539-1.394-9.246-5.933-10.508a223.63 223.63 0 0 0-59.965-8.09 227.164 227.164 0 0 0-167.074 72.688c-2.332 2.48-2.969 6.11-1.617 9.234s4.433 5.145 7.836 5.145zM270.082 58.2a8.533 8.533 0 0 0 4.27 11.28 217.913 217.913 0 0 1 83.488 66.29 8.533 8.533 0 0 0 11.965 1.585c3.742-2.863 4.453-8.222 1.586-11.964a235.025 235.025 0 0 0-90.028-71.48 8.535 8.535 0 0 0-11.281 4.29zm0 0" fill="#eda708" opacity="1" data-original="#000000" class=""></path><path d="M82.7 120.504a176.02 176.02 0 0 1 53.581-27.23 8.537 8.537 0 0 0 5.633-10.676 8.537 8.537 0 0 0-10.676-5.633 193.197 193.197 0 0 0-58.754 29.867c-3.77 2.828-4.535 8.176-1.707 11.945a8.533 8.533 0 0 0 11.95 1.707zM6.465 217.773a8.885 8.885 0 0 0 2.558.403 8.537 8.537 0 0 0 8.133-5.973 181.734 181.734 0 0 1 39.653-68.5 8.534 8.534 0 1 0-12.57-11.543A198.608 198.608 0 0 0 .89 207.055a8.53 8.53 0 0 0 5.574 10.719zM170.191 69.625a8.536 8.536 0 0 0-5.988 13.598 8.532 8.532 0 0 0 7.918 3.359 176.17 176.17 0 0 1 19.625-1.133c68.496.82 130.406 40.989 159.07 103.2a8.53 8.53 0 0 0 7.016 5.015 8.531 8.531 0 0 0 8.43-12.27C334.789 113.208 266.879 69.22 191.782 68.38c-7.216.012-14.423.426-21.59 1.246zM48.395 207.586c26.125-55.52 82.847-90.102 144.164-87.895a8.537 8.537 0 1 0 .453-17.066c-68.102-2.352-131.059 36.078-160.094 97.723a160.978 160.978 0 0 0-15.207 60.21c-.07 2.825-.156 5.735-.156 8.645 0 19.125 0 29.371.105 30.465a8.481 8.481 0 0 0 8.531 7.93h.41a8.537 8.537 0 0 0 8.098-8.93c-.078-2.242-.078-28.047-.078-29.465 0-2.723.086-5.453.164-7.883a144.04 144.04 0 0 1 13.61-53.734zm0 0" fill="#eda708" opacity="1" data-original="#000000" class=""></path><path d="M278.121 147.629a8.535 8.535 0 0 0 8.133-5.945 8.538 8.538 0 0 0-3.2-9.551 157.643 157.643 0 0 0-50.238-23.696l-3.105-.769a8.535 8.535 0 0 0-10.356 10.55 8.542 8.542 0 0 0 6.09 5.981l3.004.742a140.553 140.553 0 0 1 44.715 21.118 8.512 8.512 0 0 0 4.957 1.57zM124.848 459.652l18.847 14.684c17.477 13.656 33.801 26.336 46.14 35.84 3.727 2.887 9.087 2.203 11.974-1.528 2.882-3.726 2.199-9.085-1.528-11.972-12.332-9.531-28.629-22.235-46.082-35.84l-18.883-14.648a82.33 82.33 0 0 1-32.425-65.375v-111.79c0-3.492.246-6.984.742-10.441a75.691 75.691 0 0 1 11.094-30.723 83.507 83.507 0 0 1 26.886-26.632 90.653 90.653 0 0 1 56.953-13.028 86.203 86.203 0 0 1 13.07 2.336c2.981.84 6.177 0 8.36-2.191s3.012-5.39 2.16-8.364a8.522 8.522 0 0 0-6.25-5.964 104.802 104.802 0 0 0-15.652-2.801 108.053 108.053 0 0 0-67.668 15.508 100.53 100.53 0 0 0-32.34 32.058 92.41 92.41 0 0 0-13.594 37.461 91.125 91.125 0 0 0-.898 12.801v112.195a99.069 99.069 0 0 0 39.094 78.414zm0 0" fill="#eda708" opacity="1" data-original="#000000" class=""></path><path d="M338.895 241.934a67.603 67.603 0 0 0-24.278-15.61 68.562 68.562 0 0 0-42.273-1.851 67.873 67.873 0 0 0-29.977 17.476 45.698 45.698 0 0 0-2.996 3.27c-23.723 27.008-22.41 67.793 2.996 93.226a57.27 57.27 0 0 0 4.496 4.102c28.04 23.152 69.301 20.265 93.84-6.563 24.54-26.832 23.746-68.187-1.808-94.05zm-12.067 84.476c-18.851 18.598-48.73 19.89-69.117 2.988a41.512 41.512 0 0 1-3.27-2.988c-19.082-19.129-20.011-49.797-2.125-70.047a29.165 29.165 0 0 1 2.125-2.332 50.806 50.806 0 0 1 22.47-13.097 50.41 50.41 0 0 1 13.652-1.86 51.574 51.574 0 0 1 18.082 3.266 51.208 51.208 0 0 1 31.988 37.082 51.207 51.207 0 0 1-13.793 46.988zm0 0" fill="#eda708" opacity="1" data-original="#000000" class=""></path><path d="m398.996 360.434-19.43-19.754a102.449 102.449 0 0 0-.347-101.602 102.438 102.438 0 0 0-87.676-51.34 102.912 102.912 0 0 0-73.3 30.043c-36.938 36.614-40.516 95.117-8.313 135.957 32.203 40.84 89.93 51 134.144 23.617l19.133 19.458h-.043c-6.52 6.69-6.52 17.363 0 24.054l77.297 78.567a41.81 41.81 0 0 0 59.73 0c16.36-16.778 16.36-43.536 0-60.313l-77.3-78.559c-6.641-6.445-17.188-6.503-23.895-.128zm-168.703-10a85.151 85.151 0 0 1 0-120.566 83.444 83.444 0 0 1 26.195-17.852 85.954 85.954 0 0 1 34.383-7.211h.527a84.66 84.66 0 0 1 44.16 12.902 83.084 83.084 0 0 1 15.36 12.168 85.126 85.126 0 0 1 25.012 60.277 85.135 85.135 0 0 1-25.012 60.282 83.844 83.844 0 0 1-11.945 9.941c-33.84 23.488-79.66 19.297-108.68-9.941zm127.64 16.656c1.708-1.485 3.415-2.969 5.02-4.574a111.015 111.015 0 0 0 6.824-7.473l17.274 17.55-11.836 12.024zm130.09 120.379c-9.835 9.629-25.558 9.629-35.394 0l-77.297-78.676 29.016-29.703a7.36 7.36 0 0 0 .629-.422c.191-.238.359-.492.511-.758l5.258-5.383 77.297 78.567c9.855 10.125 9.848 26.261-.02 36.375zm0 0" fill="#eda708" opacity="1" data-original="#000000" class=""></path></g></svg>