<svg xmlns="http://www.w3.org/2000/svg" version="1.1" xmlns:xlink="http://www.w3.org/1999/xlink" width="512" height="512" x="0" y="0" viewBox="0 0 512 512" style="enable-background:new 0 0 512 512" xml:space="preserve" class=""><g><path d="M357.5 0h-260a7.47 7.47 0 0 0-5.3 2.2l-90 90A7.47 7.47 0 0 0 0 97.5v407a7.5 7.5 0 0 0 7.5 7.5h350a7.5 7.5 0 0 0 7.5-7.5V7.5a7.5 7.5 0 0 0-7.5-7.5ZM87.68 27.92 82 78.88A12.48 12.48 0 0 1 69.6 90h-44ZM350 497H15V105h54.6a27.47 27.47 0 0 0 27.33-24.46L104.21 15H350Z" fill="#cca732" opacity="1" data-original="#000000"></path><path d="M302.5 412h-65a22.52 22.52 0 0 0-22.5 22.5v15a22.52 22.52 0 0 0 22.5 22.5h65a22.52 22.52 0 0 0 22.5-22.5v-15a22.52 22.52 0 0 0-22.5-22.5Zm7.5 37.5a7.5 7.5 0 0 1-7.5 7.5h-65a7.5 7.5 0 0 1-7.5-7.5v-15a7.5 7.5 0 0 1 7.5-7.5h65a7.5 7.5 0 0 1 7.5 7.5ZM40 329.5A22.52 22.52 0 0 0 62.5 352h240a22.5 22.5 0 0 0 0-45h-240A22.52 22.52 0 0 0 40 329.5Zm270 0a7.5 7.5 0 0 1-7.5 7.5h-240a7.5 7.5 0 0 1 0-15h240a7.5 7.5 0 0 1 7.5 7.5ZM489.5 80H467V67.5a7.5 7.5 0 0 0-7.5-7.5V20a20 20 0 0 0-40 0v40a7.5 7.5 0 0 0-7.5 7.5v189.94a7.5 7.5 0 0 0-5 7.06v160.12a90.19 90.19 0 0 0 20.86 57.63l4.14 5v17.25a7.5 7.5 0 0 0 15 0v-17.28l4.14-5a90.19 90.19 0 0 0 20.86-57.6V264.5a7.5 7.5 0 0 0-5-7.06V125h30v82.5a7.5 7.5 0 0 0 15 0v-105A22.52 22.52 0 0 0 489.5 80ZM452 257h-25V75h25Zm5 40h-35v-25h35ZM434.5 20a5 5 0 0 1 10 0v40h-10Zm5.11 452.65-.11.13-.11-.13a75.11 75.11 0 0 1-17.39-48V312h35v112.62a75.11 75.11 0 0 1-17.39 48.03ZM467 95h22.5a7.5 7.5 0 0 1 7.5 7.5v7.5h-30ZM89 126.31a7.5 7.5 0 0 0-4 6.6v35.56a7.5 7.5 0 0 0 11 6.61l9-4.82V267H82.5a7.5 7.5 0 0 0 0 15h200a7.5 7.5 0 0 0 0-15H260v-96.74l8.95 4.82a7.5 7.5 0 0 0 11.05-6.61v-35.56a7.5 7.5 0 0 0-3.95-6.6l-90-48.41a7.45 7.45 0 0 0-7.1 0ZM205 267h-45v-53.85a12.7 12.7 0 0 1 12.69-12.69h19.62A12.7 12.7 0 0 1 205 213.15Zm40 0h-25v-53.85a27.72 27.72 0 0 0-27.69-27.69h-19.62A27.72 27.72 0 0 0 145 213.15V267h-25V162.19l62.5-33.62 62.5 33.62Zm20-129.6v18.52l-78.95-42.47a7.53 7.53 0 0 0-7.1 0L100 155.92V137.4L182.5 93ZM182.5 412h-135a7.5 7.5 0 0 0 0 15h135a7.5 7.5 0 0 0 0-15ZM182.5 457h-135a7.5 7.5 0 0 0 0 15h135a7.5 7.5 0 0 0 0-15ZM317.5 367h-230a7.5 7.5 0 0 0 0 15h230a7.5 7.5 0 0 0 0-15ZM47.5 382h10a7.5 7.5 0 0 0 0-15h-10a7.5 7.5 0 0 0 0 15Z" fill="#cca732" opacity="1" data-original="#000000"></path></g></svg>