<svg xmlns="http://www.w3.org/2000/svg" version="1.1" xmlns:xlink="http://www.w3.org/1999/xlink" width="512" height="512" x="0" y="0" viewBox="0 0 682.667 682.667" style="enable-background:new 0 0 512 512" xml:space="preserve" class=""><g><defs><clipPath id="a" clipPathUnits="userSpaceOnUse"><path d="M0 512h512V0H0Z" fill="#cca732" opacity="1" data-original="#000000"></path></clipPath></defs><g clip-path="url(#a)" transform="matrix(1.33333 0 0 -1.33333 0 682.667)"><path d="M0 0c4.999 4.872 2.24 13.361-4.668 14.365l-41.001 5.958a8.423 8.423 0 0 0-6.342 4.608l-18.336 37.153c-3.09 6.26-12.016 6.26-15.105 0l-18.336-37.153a8.425 8.425 0 0 0-6.342-4.608l-41.001-5.958a8.686 8.686 0 0 1-1.774-.472l5.341-10.821a10.747 10.747 0 0 1 8.096-5.883l52.35-7.607c8.82-1.282 12.342-12.12 5.959-18.341l-37.88-36.925a10.752 10.752 0 0 1-3.093-9.518l1.978-11.533a8.578 8.578 0 0 1 1.662.646l36.674 19.279a8.413 8.413 0 0 0 7.837 0l36.673-19.279c6.179-3.248 13.401 1.998 12.221 8.878l-7.005 40.836a8.425 8.425 0 0 0 2.423 7.455z" style="stroke-width:15;stroke-linecap:round;stroke-linejoin:round;stroke-miterlimit:10;stroke-dasharray:none;stroke-opacity:1" transform="translate(436.619 286.143)" fill="none" stroke="#cca732" stroke-width="15" stroke-linecap="round" stroke-linejoin="round" stroke-miterlimit="10" stroke-dasharray="none" stroke-opacity="" data-original="#020202" class="" opacity="1"></path><path d="m0 0 1.979 11.534a10.755 10.755 0 0 1-3.093 9.518l-37.881 36.925c-6.382 6.22-2.86 17.059 5.959 18.34l52.35 7.607a10.755 10.755 0 0 1 8.097 5.883l5.34 10.821a8.678 8.678 0 0 1-1.773.473l-41.002 5.958a8.422 8.422 0 0 0-6.342 4.607l-18.336 37.153c-3.089 6.261-12.015 6.261-15.105 0l-18.336-37.153a8.42 8.42 0 0 0-6.341-4.607l-41.002-5.958c-6.908-1.004-9.666-9.494-4.667-14.366l29.669-28.92a8.426 8.426 0 0 0 2.422-7.454l-7.004-40.837c-1.181-6.879 6.041-12.126 12.22-8.878l36.673 19.28a8.421 8.421 0 0 0 7.838 0L-1.662.646A8.578 8.578 0 0 1 0 0Z" style="stroke-width:15;stroke-linecap:round;stroke-linejoin:round;stroke-miterlimit:10;stroke-dasharray:none;stroke-opacity:1" transform="translate(195.535 199.407)" fill="none" stroke="#cca732" stroke-width="15" stroke-linecap="round" stroke-linejoin="round" stroke-miterlimit="10" stroke-dasharray="none" stroke-opacity="" data-original="#020202" class="" opacity="1"></path><path d="M0 0a8.422 8.422 0 0 1-2.422 7.454l-29.669 28.921c-4.999 4.872-2.241 13.361 4.667 14.365l41.002 5.958a8.42 8.42 0 0 1 6.341 4.607l5.876 11.905c-.216.053-.429.111-.656.144L-8.24 78.205a6.853 6.853 0 0 0-5.162 3.751l-14.928 30.246c-2.515 5.096-9.781 5.096-12.296 0l-14.928-30.246a6.855 6.855 0 0 0-5.162-3.751l-33.379-4.851c-5.624-.816-7.869-7.728-3.8-11.694l24.153-23.544a6.856 6.856 0 0 0 1.972-6.068l-5.702-33.244c-.961-5.601 4.918-9.873 9.948-7.228l29.856 15.695a6.849 6.849 0 0 0 6.38 0L-1.444-8.418Z" style="stroke-width:15;stroke-linecap:round;stroke-linejoin:round;stroke-miterlimit:10;stroke-dasharray:none;stroke-opacity:1" transform="translate(107.473 249.768)" fill="none" stroke="#cca732" stroke-width="15" stroke-linecap="round" stroke-linejoin="round" stroke-miterlimit="10" stroke-dasharray="none" stroke-opacity="" data-original="#020202" class="" opacity="1"></path><path d="m0 0 12.356 12.044c4.069 3.966 1.824 10.878-3.8 11.695l-33.379 4.85a6.857 6.857 0 0 0-5.162 3.751l-14.928 30.246c-2.515 5.096-9.781 5.096-12.296 0L-72.137 32.34a6.854 6.854 0 0 0-5.162-3.751l-33.379-4.85c-.227-.033-.44-.092-.656-.144l5.876-11.906a8.425 8.425 0 0 1 6.341-4.607l41.002-5.958c6.908-1.004 9.666-9.493 4.668-14.365l-29.669-28.921a8.42 8.42 0 0 1-2.423-7.454l1.444-8.418 29.844 15.69a6.855 6.855 0 0 0 6.38 0l29.856-15.696c5.03-2.645 10.909 1.627 9.948 7.228l-2.993 17.451" style="stroke-width:15;stroke-linecap:round;stroke-linejoin:round;stroke-miterlimit:10;stroke-dasharray:none;stroke-opacity:1" transform="translate(490.066 299.384)" fill="none" stroke="#cca732" stroke-width="15" stroke-linecap="round" stroke-linejoin="round" stroke-miterlimit="10" stroke-dasharray="none" stroke-opacity="" data-original="#020202" class="" opacity="1"></path><path d="m0 0 34.327-18.046c7.889-4.148 17.109 2.551 15.602 11.335l-8.943 52.139a10.748 10.748 0 0 0 3.094 9.517L81.96 91.87c6.382 6.221 2.86 17.06-5.96 18.341l-52.349 7.607a10.754 10.754 0 0 0-8.097 5.883l-23.411 47.436c-3.945 7.993-15.341 7.993-19.286 0l-23.411-47.436a10.753 10.753 0 0 0-8.096-5.883l-52.35-7.607c-8.82-1.281-12.342-12.12-5.96-18.341l37.88-36.925a10.748 10.748 0 0 0 3.094-9.517l-8.943-52.139c-1.507-8.784 7.714-15.483 15.602-11.335L-35 0" style="stroke-width:15;stroke-linecap:round;stroke-linejoin:round;stroke-miterlimit:10;stroke-dasharray:none;stroke-opacity:1" transform="translate(273.5 165.514)" fill="none" stroke="#cca732" stroke-width="15" stroke-linecap="round" stroke-linejoin="round" stroke-miterlimit="10" stroke-dasharray="none" stroke-opacity="" data-original="#020202" class="" opacity="1"></path></g></g></svg>