<?xml version="1.0" standalone="no"?>
<!DOCTYPE svg PUBLIC "-//W3C//DTD SVG 20010904//EN"
 "http://www.w3.org/TR/2001/REC-SVG-20010904/DTD/svg10.dtd">
<svg version="1.0" xmlns="http://www.w3.org/2000/svg"
 width="170.000000pt" height="170.000000pt" viewBox="0 0 170.000000 170.000000"
 preserveAspectRatio="xMidYMid meet">
<metadata>
Created by potrace 1.14, written by Peter Selinger 2001-2017
</metadata>
<g transform="translate(0.000000,170.000000) scale(0.100000,-0.100000)"
fill="#000000" stroke="none">
<path d="M916 1665 c-58 -39 -87 -51 -154 -64 -66 -13 -202 -66 -214 -84 -3
-6 -4 -17 -1 -24 4 -10 -9 -7 -43 10 -59 30 -120 48 -139 41 -14 -6 -22 -26
-45 -116 -7 -26 -32 -78 -56 -114 -24 -37 -44 -72 -44 -78 0 -6 -12 -35 -25
-65 -23 -48 -24 -56 -11 -70 14 -15 10 -18 -37 -35 -77 -27 -117 -54 -117 -79
0 -12 16 -47 35 -79 23 -36 42 -85 51 -130 8 -40 30 -106 49 -148 27 -62 37
-75 54 -73 l21 3 -21 -42 c-32 -63 -50 -119 -44 -139 4 -11 23 -23 48 -29 91
-24 137 -42 172 -70 20 -16 62 -38 93 -49 32 -12 70 -28 86 -36 25 -14 31 -14
45 -1 15 14 18 10 35 -37 26 -75 54 -117 78 -117 11 0 47 16 79 37 40 24 83
41 130 49 71 14 208 68 221 87 3 6 4 16 1 24 -3 8 19 2 58 -16 122 -57 139
-51 159 47 14 63 32 104 65 144 13 15 35 60 50 100 15 40 32 79 38 86 7 8 5
18 -6 30 -16 17 -14 19 36 36 77 28 117 54 117 79 0 12 -16 47 -35 79 -22 35
-42 85 -50 126 -8 38 -25 93 -38 123 -13 30 -29 67 -36 82 -9 22 -16 27 -32
22 -20 -7 -20 -7 1 36 33 64 51 120 45 140 -4 11 -23 23 -48 30 -101 28 -139
42 -165 64 -16 13 -70 42 -122 64 -85 36 -96 39 -111 25 -15 -14 -18 -10 -34
38 -38 119 -70 140 -139 93z"/>
</g>
</svg>
